<svg class="img-fluid" id="outputsvg" xmlns="http://www.w3.org/2000/svg" style="transform: matrix(1, 0, 0, 1, 0, 0); transform-origin: 50% 50%; cursor: move; transition: transform 200ms ease-in-out;" width="190" height="190" viewBox="0 0 1900 1900"><g id="l5XBTpEXHHvLTEHpVeSAp97" fill="rgb(220,222,217)" style="transform: none;"><g style="transform: none;"><path id="pLvNHGI6V" d="M 570 1223 c -61 -10 -108 -27 -195 -70 -86 -43 -185 -69 -196 -51 -6 8 -9 -2 -9 -29 0 -40 2 -43 28 -43 42 1 106 18 110 29 2 6 18 11 34 11 17 0 65 16 107 36 42 20 97 41 124 47 26 7 47 17 47 24 0 7 9 13 20 13 19 0 19 1 3 20 -17 20 -25 21 -73 13 z "></path><path id="pM2rS1LMw" d="M 1030 1181 c 0 -31 0 -31 55 -31 56 0 56 0 35 22 -11 12 -31 23 -43 23 -13 1 -28 5 -35 9 -8 5 -12 -2 -12 -23 z "></path><path id="pg89taNCN" d="M 437 902 c -25 -27 -21 -102 5 -102 6 0 19 11 30 25 20 25 78 36 78 14 0 -6 16 -9 38 -7 54 4 47 28 -18 60 -65 32 -110 35 -133 10 z "></path><path id="pO1b7gpDw" d="M 1420 898 c 0 -7 -10 -19 -21 -27 -63 -39 -166 -92 -257 -132 -30 -13 -51 -28 -48 -35 2 -6 -1 -17 -7 -23 -15 -15 44 -15 98 0 61 17 229 103 268 137 27 24 20 86 -10 90 -14 2 -23 -2 -23 -10 z "></path><path id="pHbZUb8Af" d="M 630 705 c 0 -32 2 -35 30 -35 17 0 30 -4 30 -10 0 -5 18 -10 40 -10 35 0 40 3 40 24 0 20 -8 25 -47 36 -27 6 -58 16 -70 21 -21 8 -23 6 -23 -26 z "></path><path id="pc4f3g9hO" d="M 810 674 c 0 -21 4 -24 40 -24 37 0 40 2 40 27 0 20 -3 24 -11 16 -7 -7 -21 -8 -40 -3 -26 8 -29 6 -29 -16 z "></path><path id="ppsFDmih9" d="M 836 455 c -20 -30 -20 -55 -1 -81 14 -18 15 -18 42 13 24 26 37 32 91 38 38 4 62 12 62 19 0 27 -26 36 -101 36 -70 0 -78 -2 -93 -25 z "></path></g></g><g id="l3nMBmwCLEH8l3L4r0ok9QB" fill="rgb(199,211,196)" style="transform: none;"><g style="transform: none;"><path id="p1APFX3LYt" d="M 560 1209 c -13 -9 -13 -10 2 -6 9 3 19 3 22 -1 4 -3 -15 -11 -42 -18 -27 -7 -82 -29 -124 -48 -41 -20 -89 -36 -106 -36 -16 0 -32 -5 -34 -11 -5 -16 -78 -30 -78 -14 0 11 -20 25 -36 25 -2 0 -4 -16 -4 -35 0 -35 0 -35 50 -35 38 0 50 4 50 15 0 10 10 15 34 15 54 0 96 11 96 26 0 9 11 14 30 14 20 0 30 5 30 15 0 10 10 15 26 15 30 0 107 21 114 31 3 4 14 8 25 10 12 3 21 14 23 27 3 19 -1 22 -30 22 -18 0 -40 -5 -48 -11 z "></path><path id="p13UhVe8Dj" d="M 1290 1096 c 0 -19 4 -38 10 -41 20 -12 110 -18 110 -7 0 12 -38 41 -87 66 -33 17 -33 17 -33 -18 z "></path><path id="pEghAvtPr" d="M 1417 890 c -3 -11 -1 -18 3 -15 22 13 17 -16 -5 -33 -34 -27 -31 -34 13 -30 37 3 37 3 40 51 3 44 2 47 -21 47 -16 0 -26 -7 -30 -20 z "></path><path id="p2ieIIzkx" d="M 560 889 c 0 -7 -14 -8 -40 -4 -36 6 -43 3 -70 -24 -26 -26 -29 -34 -20 -51 15 -29 30 -25 37 10 6 34 14 36 69 17 22 -8 58 -17 82 -21 51 -8 58 12 14 43 -23 16 -32 18 -42 8 -10 -10 -12 -9 -7 5 3 9 0 19 -9 22 -8 3 -14 1 -14 -5 z "></path><path id="pMOJv7ECf" d="M 1335 794 c -84 -46 -149 -76 -168 -78 -69 -10 -96 -46 -34 -46 47 0 77 10 77 26 0 9 12 14 35 14 19 0 35 5 35 10 0 6 9 10 20 10 11 0 20 7 20 15 0 9 9 15 25 15 20 0 25 5 25 25 0 30 3 29 -35 9 z "></path><path id="p1FEbgeLda" d="M 520 756 c 0 -33 4 -38 49 -61 56 -28 186 -65 230 -65 15 0 43 3 60 6 26 6 31 11 31 36 0 26 -2 29 -15 18 -12 -10 -21 -10 -41 -1 -14 6 -36 11 -49 11 -49 0 -192 46 -242 78 -22 14 -23 13 -23 -22 z  m 150 -51 c 0 -3 -2 -5 -5 -5 -3 0 -5 2 -5 5 0 3 2 5 5 5 3 0 5 -2 5 -5 z  m 70 -15 c 0 -5 -4 -10 -10 -10 -5 0 -10 5 -10 10 0 6 5 10 10 10 6 0 10 -4 10 -10 z "></path><path id="pMefR8CAl" d="M 936 465 c 5 -11 -2 -15 -27 -15 -24 0 -40 -8 -56 -27 -25 -28 -26 -33 -17 -57 10 -26 41 -19 49 11 9 37 20 43 86 43 62 0 81 16 50 44 -21 19 -35 21 -25 4 6 -10 4 -10 -7 0 -19 18 -60 16 -53 -3 z "></path></g></g><g id="lSHZdJkb4HdEkSSrqdDi1k" fill="rgb(201,213,169)" style="transform: none;"><g style="transform: none;"><path id="p18EI2GCqF" d="M 920 1221 c 0 -5 -14 -8 -32 -7 -23 1 -33 -4 -36 -16 -3 -15 4 -18 37 -18 37 0 41 2 41 25 0 14 -2 25 -5 25 -3 0 -5 -4 -5 -9 z "></path><path id="pwNJ51Gtk" d="M 601 1206 c -6 -8 -33 -19 -59 -25 -26 -7 -81 -27 -122 -46 -76 -34 -196 -75 -219 -75 -7 0 -9 5 -6 10 8 13 -22 43 -35 35 -5 -3 -10 -24 -10 -46 0 -38 1 -39 35 -39 20 0 61 9 93 19 31 11 76 24 100 30 25 7 42 18 42 26 0 9 9 15 22 15 28 0 88 22 88 32 0 4 13 8 29 8 34 0 91 19 91 30 0 36 -28 51 -49 26 z "></path><path id="pYxMRZzaw" d="M 1022 1183 c 3 -38 3 -38 61 -41 31 -2 57 0 57 3 0 15 -31 35 -54 35 -15 0 -31 8 -38 20 -19 31 -30 24 -26 -17 z "></path><path id="pwkrzW7yf" d="M 1310 1089 c 0 -19 7 -37 18 -45 23 -18 82 -18 82 0 0 17 -24 38 -33 29 -4 -3 -7 -1 -7 5 0 6 -13 18 -30 27 -30 16 -30 16 -30 -16 z  m 30 1 c 0 -5 -2 -10 -4 -10 -3 0 -8 5 -11 10 -3 6 -1 10 4 10 6 0 11 -4 11 -10 z "></path><path id="pb74XqwvW" d="M 1440 866 c 0 -15 -163 -110 -242 -142 -54 -21 -63 -44 -19 -44 28 0 121 36 131 50 3 4 15 10 28 14 12 4 22 14 22 22 0 8 9 14 20 14 10 0 35 8 55 17 30 14 35 22 35 50 0 23 -5 33 -15 33 -8 0 -15 -6 -15 -14 z "></path></g></g><g id="l26gQL2hPW339cOwujg6BSx" fill="rgb(170,195,168)" style="transform: none;"><g style="transform: none;"><path id="p1DzCLSU3i" d="M 1250 1120 c 0 -52 101 -97 113 -51 3 14 0 17 -13 14 -10 -3 -21 0 -24 6 -4 6 -1 11 6 11 16 1 -52 39 -69 40 -7 0 -13 -9 -13 -20 z "></path><path id="pLEu2udEh" d="M 580 885 c 0 -3 2 -5 5 -5 3 0 5 2 5 5 0 3 -2 5 -5 5 -3 0 -5 -2 -5 -5 z "></path><path id="p1UsDX9Yz" d="M 444 855 c -20 -31 -15 -59 14 -63 20 -3 22 1 22 42 0 51 -12 58 -36 21 z "></path><path id="p1GLBkXEMC" d="M 530 855 c 0 -20 6 -25 38 -30 20 -3 47 -8 60 -11 17 -3 22 0 22 16 0 12 -4 19 -8 16 -5 -3 -32 4 -60 14 -52 20 -52 20 -52 -5 z "></path><path id="p1EsrE4Ou8" d="M 492 774 c 2 -32 7 -40 26 -42 12 -2 22 -9 22 -17 0 -16 22 -25 61 -25 40 0 36 16 -11 40 -22 11 -39 25 -37 30 1 6 -13 20 -31 31 -33 22 -33 22 -30 -17 z "></path><path id="ppcUPanhP" d="M 580 750 c 0 -6 7 -10 15 -10 8 0 15 2 15 4 0 2 -7 6 -15 10 -8 3 -15 1 -15 -4 z "></path><path id="p6kj8pJqu" d="M 1135 703 c -30 -6 -65 -25 -65 -35 0 -10 45 -11 89 -2 21 5 31 12 31 25 0 19 -12 22 -55 12 z "></path><path id="pLfCp1Uti" d="M 660 676 c 0 -18 9 -24 53 -34 29 -6 78 -12 110 -12 57 0 57 0 57 31 0 24 -3 29 -12 21 -26 -20 -74 -21 -140 -3 -68 18 -68 18 -68 -3 z "></path><path id="pC5MLvNE1" d="M 957 466 c -4 -9 -13 -16 -22 -16 -8 0 -15 -7 -15 -15 0 -12 13 -15 60 -15 63 0 77 13 44 41 -13 10 -17 10 -24 -2 -8 -12 -11 -11 -23 5 -12 17 -14 17 -20 2 z "></path><path id="p7mhurXV4" d="M 855 413 c -3 -15 -11 -30 -16 -34 -6 -3 -1 -16 10 -30 24 -30 30 -24 38 40 5 42 3 51 -10 51 -8 0 -18 -12 -22 -27 z "></path></g></g><g id="l2kMSXTteamLA3Olnyyb1iH" fill="rgb(191,209,132)" style="transform: none;"><g style="transform: none;"><path id="pu0InEpMp" d="M 831 1203 c -1 -33 -1 -33 49 -33 50 0 50 0 50 33 0 22 -3 28 -9 18 -6 -9 -18 -11 -34 -7 -16 4 -29 1 -33 -6 -5 -8 -10 -6 -15 8 -6 15 -8 12 -8 -13 z "></path><path id="p2HAtcrwH" d="M 1010 1170 c 0 -40 0 -40 40 -40 33 0 40 3 40 20 0 11 -7 20 -15 20 -8 0 -19 9 -25 20 -19 35 -40 24 -40 -20 z "></path><path id="pJC7qdvJk" d="M 575 1189 c -16 -5 -46 -14 -65 -20 -19 -6 -62 -24 -95 -39 -71 -33 -225 -83 -233 -75 -3 3 -1 10 6 17 8 8 7 14 -3 24 -22 22 -35 16 -35 -17 0 -64 38 -73 156 -34 42 14 83 25 90 25 8 0 14 5 14 10 0 6 7 10 15 10 8 0 15 7 15 15 0 10 11 15 35 15 19 0 35 4 35 9 0 5 23 12 50 16 44 6 50 10 50 31 0 13 -1 24 -2 23 -2 0 -16 -5 -33 -10 z "></path><path id="p1ExsHBiOo" d="M 1230 1125 c 0 -34 1 -35 39 -35 34 0 38 3 34 20 -3 11 -9 17 -14 14 -5 -3 -9 0 -9 5 0 6 -7 11 -15 11 -8 0 -15 5 -15 10 0 6 -4 10 -10 10 -5 0 -10 -16 -10 -35 z "></path><path id="p17yhle7ot" d="M 1343 1083 c -29 -6 -30 -38 -3 -53 12 -6 37 -10 57 -8 37 3 37 3 10 33 -14 17 -27 24 -27 17 0 -7 -5 -10 -10 -7 -6 4 -8 11 -5 16 4 5 5 8 3 8 -2 -1 -13 -4 -25 -6 z "></path><path id="pTFM3swVH" d="M 1323 783 c -35 -21 -63 -41 -63 -45 0 -4 16 -8 35 -8 24 0 35 5 35 15 0 8 9 15 19 15 35 0 51 12 51 36 0 13 -3 24 -7 24 -5 0 -36 -17 -70 -37 z "></path></g></g><g id="l1DwkEVUX5ocZNRflTMz6NJ" fill="rgb(162,197,111)" style="transform: none;"><g style="transform: none;"><path id="p16YifNHXS" d="M 920 1220 c 0 -5 -11 -12 -25 -16 -39 -10 -31 -34 10 -34 32 0 35 2 35 30 0 17 -4 30 -10 30 -5 0 -10 -4 -10 -10 z "></path><path id="pEVaCBuEF" d="M 1210 1131 c 0 -43 10 -51 67 -51 28 0 34 3 29 16 -3 9 -6 19 -6 24 0 4 -8 6 -19 3 -19 -5 -36 21 -25 38 3 5 -6 9 -20 9 -23 0 -26 -4 -26 -39 z "></path><path id="p1GMngOQie" d="M 453 1148 c -45 -15 -43 -38 2 -38 31 0 35 3 35 25 0 14 -1 25 -2 24 -2 -1 -18 -6 -35 -11 z "></path><path id="p12lVMEuqs" d="M 1328 784 c -38 -20 -35 -34 7 -34 31 0 35 3 35 25 0 29 -5 30 -42 9 z "></path><path id="p1FIAx2WEc" d="M 1221 729 c -25 -11 -64 -24 -88 -30 -27 -7 -43 -17 -43 -27 0 -12 10 -14 53 -9 73 7 127 34 127 64 0 13 -1 23 -2 23 -2 0 -23 -9 -47 -21 z "></path></g></g><g id="l6NRDDcVjCEBBOJAEBiykMM" fill="rgb(179,207,80)" style="transform: none;"><g style="transform: none;"><path id="pw8EpYdXo" d="M 953 1573 c -7 -3 -13 -13 -13 -24 0 -13 7 -19 24 -19 19 0 23 4 19 20 -6 24 -13 29 -30 23 z "></path><path id="p1E8sHFOlm" d="M 916 1215 c -3 -8 -17 -15 -31 -15 -22 0 -26 -4 -23 -22 2 -19 10 -24 46 -26 42 -3 42 -3 42 37 0 42 -21 58 -34 26 z "></path><path id="p1DH5rIuEb" d="M 620 1211 c 0 -9 -19 -17 -99 -42 -53 -17 -66 -39 -23 -39 16 0 42 4 58 9 16 5 48 14 72 20 40 11 60 41 27 41 -8 0 -15 5 -15 10 0 6 -4 10 -10 10 -5 0 -10 -4 -10 -9 z "></path><path id="p8kBqOBfV" d="M 1030 1165 c 0 -35 0 -35 60 -35 59 0 60 1 60 28 0 15 -4 23 -8 17 -4 -5 -28 -10 -54 -10 -41 0 -47 2 -42 17 3 10 1 18 -5 18 -6 0 -11 -16 -11 -35 z "></path><path id="pM1QuiliI" d="M 400 1120 c -14 -11 -30 -20 -36 -20 -6 0 -46 -11 -88 -25 -90 -29 -96 -30 -96 -10 0 8 5 15 11 15 6 0 3 7 -5 16 -15 14 -17 14 -32 0 -9 -10 -14 -29 -12 -48 2 -26 8 -34 27 -36 29 -5 141 19 141 30 0 4 16 10 35 14 19 3 35 10 35 15 0 5 9 9 21 9 32 0 59 19 59 40 0 26 -27 26 -60 0 z "></path><path id="p184cVyG8D" d="M 1312 1070 c 2 -25 8 -36 22 -38 11 -3 26 -10 34 -18 7 -8 29 -14 48 -14 35 0 35 0 13 30 -12 16 -26 27 -31 24 -9 -6 -68 24 -81 41 -4 6 -6 -6 -5 -25 z "></path><path id="p1EDjHpsmf" d="M 1417 901 c 3 -12 9 -21 14 -21 23 0 6 -38 -23 -53 -87 -45 -173 -97 -176 -106 -2 -7 11 -11 32 -11 25 0 36 4 36 15 0 9 9 15 25 15 14 0 25 5 25 10 0 6 9 10 20 10 11 0 20 4 20 9 0 5 11 12 25 15 16 4 25 13 25 26 0 14 7 20 21 20 18 0 20 5 17 43 -3 39 -5 42 -35 45 -27 3 -31 1 -26 -17 z "></path></g></g><g id="l3WBcabBjGHVz67fn8OYzYD" fill="rgb(130,175,144)" style="transform: none;"><g style="transform: none;"><path id="pv6dfsMgE" d="M 1286 1122 c -4 -7 -14 -11 -22 -8 -9 3 -14 -2 -14 -14 0 -16 7 -20 35 -20 19 0 35 5 35 10 0 6 -4 10 -9 10 -5 0 -11 8 -13 18 -3 13 -5 14 -12 4 z "></path><path id="pD1vkpK2x" d="M 445 854 c -21 -33 -13 -74 15 -74 11 0 20 -7 20 -15 0 -8 6 -15 14 -15 7 0 16 -9 19 -20 4 -15 14 -20 36 -20 20 0 31 -5 31 -14 0 -16 50 -36 91 -36 15 0 29 -5 31 -11 2 -6 25 -13 51 -16 37 -5 47 -3 47 9 0 10 -17 20 -47 28 -111 28 -240 91 -228 110 3 4 -6 15 -18 25 -17 13 -22 24 -19 46 6 38 -19 39 -43 3 z  m 5 -29 c 0 -3 -2 -5 -5 -5 -3 0 -5 2 -5 5 0 3 2 5 5 5 3 0 5 -2 5 -5 z "></path><path id="pK9TTJLlc" d="M 600 834 c 0 -6 10 -14 23 -18 34 -9 39 -7 35 11 -3 19 -58 26 -58 7 z "></path><path id="p6LyzIJJ5" d="M 865 680 c -10 -11 -24 -20 -32 -20 -7 0 -13 -7 -13 -15 0 -10 11 -15 35 -15 33 0 35 2 35 35 0 41 -1 41 -25 15 z "></path><path id="p15WtoSkIP" d="M 960 465 c 0 -3 2 -5 5 -5 3 0 5 2 5 5 0 3 -2 5 -5 5 -3 0 -5 -2 -5 -5 z "></path><path id="p1Bvdwyj8V" d="M 874 442 c -12 -8 -34 -88 -26 -97 13 -12 42 -4 42 13 0 9 3 34 6 55 6 36 0 44 -22 29 z "></path><path id="pYkynCvc1" d="M 930 440 c 0 -5 16 -10 35 -10 19 0 35 5 35 10 0 6 -16 10 -35 10 -19 0 -35 -4 -35 -10 z "></path></g></g><g id="l4Awf08g9NIqtzfo0b8cpMu" fill="rgb(165,202,31)" style="transform: none;"><g style="transform: none;"><path id="p12D4wMnMy" d="M1800.8163001064004 939.0313690579271 C 1800.8163001064004 1413.9678268497266 1415.804229648722 1798.9798973074048 940.8677718569226 1798.9798973074048 465.9313140651231 1798.9798973074048 80.91924360744474 1413.9678268497266 80.91924360744474 939.0313690579271 80.91924360744474 464.09491126612767 465.9313140651231 79.0828408084493 940.8677718569226 79.0828408084493 1415.804229648722 79.0828408084493 1800.8163001064004 464.09491126612767 1800.8163001064004 939.0313690579271 Z M734.0 1775.0  m 336 -70 c 99 -19 129 -28 198 -61 87 -42 161 -96 228 -166 124 -128 189 -266 215 -453 10 -77 10 -105 -4 -185 -21 -126 -29 -157 -63 -226 -112 -235 -314 -392 -563 -439 -255 -49 -511 34 -697 227 -129 133 -191 269 -214 467 -12 105 -8 116 43 126 18 3 50 10 72 15 105 24 268 49 342 53 77 3 81 3 72 -15 -9 -16 -5 -18 51 -18 64 0 70 4 43 27 -16 13 -10 13 47 8 36 -4 68 -12 72 -18 14 -23 26 8 33 86 6 74 4 83 -22 75 -5 -2 -7 -9 -5 -15 4 -16 0 -16 -34 1 -15 8 -31 13 -36 10 -4 -3 -8 2 -8 10 0 29 -36 17 -53 -16 -16 -33 -16 -33 -16 -5 -1 27 -14 36 -26 17 -3 -5 -28 -10 -56 -10 -64 0 -189 -34 -262 -71 -31 -16 -77 -34 -102 -40 -25 -6 -45 -15 -45 -19 0 -4 -19 -11 -42 -15 -61 -12 -63 -12 -59 5 2 8 3 22 3 30 -1 27 39 144 70 205 125 249 398 420 678 424 36 1 99 -6 140 -14 z "></path><path id="pdlLA5BrK" d="M 940 1540 c 0 -11 -4 -20 -10 -20 -5 0 -10 -7 -10 -15 0 -8 7 -15 15 -15 8 0 15 -4 15 -10 0 -5 16 -10 35 -10 19 0 35 5 35 10 0 6 -4 10 -8 10 -4 0 -14 16 -21 35 -14 40 -51 50 -51 15 z "></path><path id="pn7uHrUmP" d="M 1010 1143 c 0 -73 11 -123 26 -123 8 0 14 5 14 10 0 11 49 14 74 4 9 -3 16 -12 16 -20 0 -8 4 -14 9 -14 16 0 61 46 61 61 0 11 10 14 40 11 35 -4 40 -1 40 16 0 13 -9 22 -26 26 -17 5 -24 12 -20 21 3 10 -1 15 -13 15 -11 0 -21 -6 -24 -12 -2 -7 -11 2 -21 20 -17 33 -46 44 -46 17 0 -11 -12 -15 -51 -15 -41 0 -50 3 -45 15 4 10 -1 15 -14 15 -17 0 -20 -7 -20 -47 z "></path><path id="p3QxACAI0" d="M 1302 1062 c -7 -22 -12 -54 -12 -72 0 -26 3 -30 13 -21 25 20 154 -80 142 -111 -6 -15 -90 -66 -182 -113 -48 -24 -68 -45 -43 -45 15 0 12 -36 -5 -50 -8 -7 -15 -28 -15 -46 0 -34 0 -34 43 -17 169 67 277 172 277 269 0 63 -67 157 -140 196 -30 17 -58 34 -61 39 -3 6 -11 -8 -17 -29 z "></path></g></g><g id="l7MWGKmozBqBLoKUWrYaC5U" fill="rgb(98,162,114)" style="transform: none;"><g style="transform: none;"><path id="pXBfACZpp" d="M 1030 1390 c 0 -12 40 -34 47 -26 9 8 -17 36 -33 36 -8 0 -14 -4 -14 -10 z "></path><path id="pnvrqtBhO" d="M 1231 1108 c -1 -36 -1 -36 50 -43 27 -4 53 -4 56 -1 12 12 -42 47 -65 43 -17 -3 -26 1 -32 17 -7 17 -9 15 -9 -16 z "></path><path id="pW6DcTUxG" d="M 1160 900 c 0 -13 7 -20 20 -20 13 0 20 7 20 20 0 13 -7 20 -20 20 -13 0 -20 -7 -20 -20 z "></path><path id="ps4MNYx2Y" d="M 456 864 c -9 -23 -8 -24 19 -24 18 0 25 5 25 20 0 24 -35 28 -44 4 z "></path><path id="p1AqOj0iTb" d="M 610 830 c 0 -8 24 -20 39 -20 20 0 5 25 -16 26 -13 1 -23 -2 -23 -6 z "></path><path id="p14RdOuavM" d="M 870 685 c -7 -14 -19 -25 -27 -25 -7 0 -13 -7 -13 -15 0 -10 11 -15 35 -15 34 0 35 1 35 40 0 46 -11 51 -30 15 z "></path><path id="p3P05i7WL" d="M 650 674 c 0 -21 5 -24 35 -24 22 0 35 5 35 13 0 8 -16 18 -35 24 -33 11 -35 10 -35 -13 z "></path><path id="pjIQ1XNeq" d="M 1010 462 c 0 -7 -7 -12 -15 -12 -8 0 -15 -7 -15 -15 0 -10 11 -15 35 -15 40 0 44 9 15 35 -11 10 -20 13 -20 7 z "></path><path id="ptdIYshT" d="M 854 376 c -8 -18 -8 -28 -1 -35 22 -22 37 -12 37 24 0 41 -20 47 -36 11 z "></path></g></g><g id="l6gQhTJSnrTlE0ZOBNxDTjB" fill="rgb(141,188,32)" style="transform: none;"><g style="transform: none;"><path id="pjk7k4nSI" d="M 880 1780 c 0 -18 7 -20 65 -20 58 0 65 2 65 20 0 18 -7 20 -65 20 -58 0 -65 -2 -65 -20 z "></path><path id="p1670J26ND" d="M 753 1783 c -15 -3 -23 -12 -23 -24 0 -22 3 -23 70 -8 93 20 48 50 -47 32 z "></path><path id="pOXzNS5Uq" d="M 1030 1776 c 0 -10 20 -19 58 -26 120 -25 290 -99 346 -152 12 -11 34 -29 49 -40 28 -20 28 -20 25 13 -2 26 -8 35 -25 37 -13 2 -23 10 -23 18 0 8 -9 14 -20 14 -11 0 -20 7 -20 15 0 21 -149 90 -245 115 -96 24 -145 26 -145 6 z "></path><path id="pYSxxgxHQ" d="M 600 1725 c 0 -10 -11 -15 -35 -15 -24 0 -35 -5 -35 -15 0 -9 -9 -15 -25 -15 -14 0 -25 -4 -25 -8 0 -4 -13 -13 -30 -19 -16 -6 -30 -18 -30 -27 0 -9 -8 -16 -20 -16 -16 0 -20 -7 -20 -30 0 -30 0 -30 79 25 44 31 109 69 145 85 73 34 84 50 31 50 -24 0 -35 -5 -35 -15 z "></path><path id="ppk8gXxUa" d="M 938 1526 c -10 -7 -18 -23 -18 -35 0 -19 6 -21 50 -21 28 0 50 5 50 10 0 6 -4 10 -10 10 -5 0 -10 7 -10 15 0 9 -10 15 -26 15 -14 0 -23 4 -19 10 8 13 4 12 -17 -4 z  m 52 -21 c 0 -3 -2 -5 -5 -5 -3 0 -5 2 -5 5 0 3 2 5 5 5 3 0 5 -2 5 -5 z "></path><path id="p12rSuVFyc" d="M 280 1474 c 0 -39 9 -38 40 6 21 30 21 30 -9 30 -29 0 -31 -3 -31 -36 z "></path><path id="pZsVnUCnj" d="M 1559 1483 c 12 -15 36 -49 54 -75 18 -26 35 -48 40 -48 11 0 9 58 -3 81 -6 10 -17 19 -25 19 -7 0 -15 10 -17 23 -2 17 -11 23 -37 25 -34 3 -34 3 -12 -25 z "></path><path id="p1TcUnfBE" d="M 220 1405 c 0 -16 -6 -25 -15 -25 -10 0 -15 -10 -15 -30 0 -19 -5 -30 -14 -30 -17 0 -26 -22 -26 -61 0 -43 18 -35 42 19 11 26 36 71 54 100 34 52 34 52 4 52 -25 0 -30 -4 -30 -25 z "></path><path id="pQ3KuagUS" d="M 1660 1345 c 0 -14 32 -65 40 -65 6 0 10 16 10 35 0 31 -3 35 -25 35 -14 0 -25 -2 -25 -5 z "></path><path id="pPQWe4fFC" d="M 745 1213 c -11 -27 -14 -88 -5 -102 14 -24 45 -6 72 44 34 62 35 74 3 67 -21 -4 -25 -10 -26 -41 -2 -36 -2 -36 -8 3 -7 43 -24 57 -36 29 z "></path><path id="ptBkEPV4p" d="M 1720 1206 c 0 -7 4 -26 9 -42 6 -16 15 -55 21 -86 8 -38 16 -58 26 -58 19 0 18 39 -2 129 -13 57 -20 71 -35 71 -10 0 -19 -6 -19 -14 z "></path><path id="pI0d053XX" d="M 850 1205 c 0 -3 2 -5 5 -5 3 0 5 2 5 5 0 3 -2 5 -5 5 -3 0 -5 -2 -5 -5 z "></path><path id="phdKiDFC3" d="M 916 1168 c -14 -83 -10 -138 8 -138 15 0 26 50 26 123 0 56 -26 68 -34 15 z "></path><path id="pllMm8V7H" d="M 110 1145 c 0 -40 24 -49 34 -12 10 37 7 47 -14 47 -16 0 -20 -7 -20 -35 z "></path><path id="piq2FiVKD" d="M 1140 1164 c 0 -4 10 -24 23 -46 22 -41 22 -41 0 -55 -29 -19 -31 -53 -4 -53 11 0 23 5 26 10 3 6 23 10 45 10 25 0 40 5 44 16 12 30 6 52 -15 57 -16 4 -20 11 -16 27 5 20 2 22 -24 18 -20 -3 -29 0 -29 9 0 7 -11 13 -25 13 -14 0 -25 -3 -25 -6 z "></path><path id="pO3nKoIyB" d="M 1010 1086 c 0 -53 8 -76 25 -76 18 0 23 28 13 78 -13 59 -38 57 -38 -2 z "></path><path id="pTdUbOr9s" d="M 1292 1046 c -22 -94 -10 -129 22 -62 27 57 30 89 9 102 -17 11 -20 7 -31 -40 z "></path><path id="pj84wNC2y" d="M 90 1035 c 0 -49 23 -64 34 -22 12 44 7 67 -14 67 -17 0 -20 -7 -20 -45 z "></path><path id="pxcRoPnrf" d="M 90 850 c 0 -33 3 -40 20 -40 21 0 25 16 14 58 -11 39 -34 27 -34 -18 z "></path><path id="pYwojxFOi" d="M 1755 823 c -16 -92 -41 -165 -88 -263 -46 -94 -63 -116 -154 -207 -102 -103 -102 -103 -67 -103 31 0 34 2 34 30 0 27 3 30 30 30 33 0 80 38 80 65 0 8 7 15 15 15 10 0 15 11 15 35 0 30 3 35 24 35 24 0 36 16 36 51 0 10 7 19 15 19 8 0 15 9 15 19 0 11 5 21 10 23 6 2 13 21 17 43 3 22 10 43 15 46 10 6 38 132 38 172 0 42 -28 34 -35 -10 z "></path><path id="prIAPwNC3" d="M 110 744 c 0 -37 21 -114 31 -114 5 0 9 -11 9 -25 0 -14 5 -25 10 -25 6 0 10 -11 10 -25 0 -16 6 -25 15 -25 9 0 15 -9 15 -24 0 -14 6 -31 13 -38 7 -7 16 -21 20 -30 3 -10 13 -18 22 -18 8 0 15 -9 15 -20 0 -23 18 -33 49 -28 18 3 15 10 -30 67 -58 75 -110 179 -135 269 -18 63 -44 85 -44 36 z "></path><path id="pLAQIrYtb" d="M 1198 714 c -22 -11 -28 -22 -28 -47 0 -18 -7 -41 -15 -51 -19 -24 -20 -70 -2 -63 6 2 29 10 49 18 21 7 37 18 36 24 -1 5 5 21 15 35 12 18 15 37 10 63 -6 41 -20 46 -65 21 z "></path><path id="pIu5i65Ll" d="M 382 299 c 3 -31 6 -34 41 -37 32 -3 37 -7 37 -28 0 -15 6 -24 15 -24 8 0 15 -4 15 -8 0 -11 86 -52 109 -52 11 0 21 -4 23 -10 4 -12 149 -50 190 -50 17 0 28 5 28 13 0 9 -32 22 -87 35 -94 23 -253 96 -306 140 -71 60 -69 60 -65 21 z "></path><path id="pov5eUZ7f" d="M 1253 175 c -43 -18 -42 -35 2 -35 31 0 35 3 35 25 0 14 -1 25 -2 25 -2 -1 -18 -7 -35 -15 z "></path><path id="ptl0K3MiN" d="M 1148 143 c -33 -8 -20 -33 17 -33 28 0 35 4 35 20 0 20 -14 23 -52 13 z "></path><path id="p1sZyntiv" d="M 1058 123 c -36 -9 -20 -33 22 -33 33 0 40 3 40 20 0 20 -20 24 -62 13 z "></path><path id="p11P0C4ffG" d="M 860 98 c 0 -16 10 -18 85 -18 77 0 85 2 85 19 0 17 -8 19 -85 18 -75 -1 -85 -3 -85 -19 z "></path></g></g><g id="l5yen3gJpWd8lf8IP1voHGh" fill="rgb(120,180,36)" style="transform: none;"><g style="transform: none;"><path id="p3AA18QDL" d="M 860 1780 c 0 -21 16 -25 58 -14 39 11 27 34 -18 34 -33 0 -40 -3 -40 -20 z "></path><path id="pa1hJFchV" d="M 950 1786 c 0 -7 10 -16 23 -20 41 -11 57 -7 57 14 0 17 -7 20 -40 20 -27 0 -40 -4 -40 -14 z "></path><path id="p119j1pfxx" d="M 1050 1776 c 0 -13 28 -26 58 -26 6 0 12 9 12 20 0 16 -7 20 -35 20 -23 0 -35 -5 -35 -14 z "></path><path id="pue8sN087" d="M 653 1758 c -18 -6 -33 -15 -33 -19 0 -5 -9 -9 -19 -9 -30 0 -51 -11 -51 -26 0 -9 -11 -14 -30 -14 -16 0 -30 -4 -30 -10 0 -5 -7 -10 -15 -10 -9 0 -15 -9 -15 -25 0 -31 3 -31 59 3 47 29 154 75 204 87 15 4 27 13 27 21 0 17 -48 17 -97 2 z "></path><path id="p1Efv24Sl1" d="M 1425 1610 c 3 -5 19 -19 35 -30 30 -21 30 -21 30 9 0 29 -3 31 -36 31 -20 0 -33 -4 -29 -10 z "></path><path id="pZ5ubZ1ev" d="M 270 1475 c 0 -18 -5 -25 -20 -25 -15 0 -20 -7 -20 -25 0 -16 -6 -25 -15 -25 -10 0 -15 -11 -15 -35 0 -19 3 -35 8 -35 4 0 19 19 33 43 15 23 41 61 59 85 32 42 32 42 1 42 -26 0 -31 -4 -31 -25 z "></path><path id="pP7gK3XYU" d="M 920 1455 c 0 -45 0 -45 45 -45 45 0 45 0 45 39 0 42 -11 51 -61 51 -28 0 -29 -2 -29 -45 z "></path><path id="pnnqmvzh3" d="M 1620 1414 c 0 -13 44 -84 52 -84 9 0 11 51 2 74 -6 15 -54 24 -54 10 z "></path><path id="pKku3tyCX" d="M 1682 1302 c 2 -4 12 -31 22 -60 21 -56 46 -70 46 -25 0 50 -22 93 -48 93 -13 0 -22 -4 -20 -8 z "></path><path id="p10CeChJ4A" d="M 749 1223 c -10 -77 -8 -93 11 -93 17 0 20 7 20 50 0 38 -4 50 -15 50 -8 0 -15 -3 -16 -7 z "></path><path id="pJEheAe3D" d="M 790 1195 c 0 -42 20 -46 38 -8 17 38 15 43 -13 43 -22 0 -25 -4 -25 -35 z "></path><path id="pkm6h6awr" d="M 110 1168 c -22 -103 -24 -148 -7 -148 11 0 19 17 27 58 6 31 15 70 21 86 13 43 11 56 -10 56 -15 0 -22 -11 -31 -52 z "></path><path id="pqRwg7MIl" d="M 1140 1175 c 0 -17 17 -50 40 -79 14 -17 13 -20 -7 -33 -32 -22 -29 -33 10 -33 37 1 71 23 64 42 -4 10 -6 10 -6 1 -1 -7 -5 -13 -11 -13 -14 0 -13 43 2 58 9 9 5 12 -20 12 -29 0 -32 3 -32 30 0 23 -4 30 -20 30 -11 0 -20 -7 -20 -15 z "></path><path id="pabnZ2Kog" d="M 1740 1138 c 0 -30 13 -58 26 -58 9 0 14 12 14 35 0 28 -4 35 -20 35 -11 0 -20 -6 -20 -12 z "></path><path id="p1DklD8jLo" d="M 916 1118 c -12 -48 -7 -78 14 -78 17 0 20 7 20 50 0 36 -4 50 -14 50 -7 0 -16 -10 -20 -22 z "></path><path id="pQA1MhZhq" d="M 748 1103 c 6 -2 18 -2 25 0 6 3 1 5 -13 5 -14 0 -19 -2 -12 -5 z "></path><path id="pLoyMPirn" d="M 1300 1067 c 0 -25 5 -37 14 -37 22 0 26 37 5 56 -18 16 -19 16 -19 -19 z "></path><path id="prA50bqFa" d="M 1010 1055 c 0 -28 4 -35 20 -35 21 0 24 10 14 48 -10 36 -34 27 -34 -13 z "></path><path id="pKIi27oj5" d="M 733 1073 c -28 -11 -13 -33 22 -33 19 0 35 5 35 10 0 6 -7 10 -15 10 -8 0 -15 5 -15 10 0 11 -7 12 -27 3 z "></path><path id="p1HCofqpe6" d="M 90 844 c 0 -15 5 -55 12 -90 9 -51 15 -64 30 -64 22 0 22 -4 3 93 -8 43 -15 81 -15 83 0 2 -7 4 -15 4 -10 0 -15 -10 -15 -26 z "></path><path id="pBsS0i1fA" d="M 1756 828 c -10 -38 -7 -48 14 -48 16 0 20 7 20 35 0 40 -24 49 -34 13 z "></path><path id="pU6LsvSG3" d="M 1138 697 c -35 -8 -48 -15 -48 -28 0 -9 5 -19 12 -21 9 -3 8 -16 -2 -51 -7 -26 -10 -50 -7 -53 3 -3 19 -3 36 1 45 10 71 52 71 114 0 28 -3 50 -7 50 -5 -1 -29 -6 -55 -12 z "></path><path id="p1A0OfeydS" d="M 1713 655 c -11 -33 -10 -35 13 -35 21 0 24 5 24 35 0 22 -5 35 -13 35 -8 0 -18 -16 -24 -35 z "></path><path id="ppMe8jrh" d="M 140 636 c 0 -32 3 -36 25 -36 24 0 25 1 12 32 -19 46 -37 48 -37 4 z "></path><path id="pTKhBFSWJ" d="M 1667 551 c -22 -38 -22 -41 8 -41 22 0 25 4 25 35 0 43 -10 44 -33 6 z "></path><path id="ppg6hYn3N" d="M 260 428 c 0 -34 3 -38 25 -38 20 0 25 -5 25 -26 0 -34 22 -54 59 -54 28 0 31 -3 31 -30 0 -28 2 -30 38 -30 37 0 37 0 -20 51 -31 27 -80 76 -107 107 -51 57 -51 57 -51 20 z "></path><path id="p17Vi9hhou" d="M 1490 325 c -35 -35 -35 -35 3 -35 36 0 37 1 37 35 0 19 -1 35 -2 34 -2 0 -19 -16 -38 -34 z "></path><path id="pB8mt6dF8" d="M 590 166 c 0 -25 17 -36 56 -36 13 0 24 -4 24 -9 0 -9 97 -31 137 -31 13 0 23 6 23 14 0 10 -20 19 -57 26 -32 7 -86 23 -120 36 -63 23 -63 23 -63 0 z "></path><path id="p1Cuxn9APi" d="M 1168 147 c -106 -32 -82 -63 28 -36 37 10 44 15 44 35 0 13 -1 23 -2 23 -2 -1 -33 -11 -70 -22 z "></path><path id="pTTPhbdQz" d="M 840 100 c 0 -17 7 -20 40 -20 45 0 57 23 18 34 -42 11 -58 7 -58 -14 z "></path><path id="ppXIxYoVk" d="M 988 113 c -36 -9 -20 -33 22 -33 33 0 40 3 40 20 0 20 -20 24 -62 13 z "></path></g></g><g id="lMX0n1DfKL0vC5kjpYGap5" fill="rgb(92,180,46)" style="transform: none;"><g style="transform: none;"><path id="pcskBOBc9" d="M 940 1492 c 0 -4 9 -14 20 -22 28 -20 25 -30 -10 -30 -30 0 -30 -1 -30 -55 0 -52 1 -55 25 -55 14 0 25 5 25 10 0 6 11 10 25 10 24 0 25 3 25 61 0 39 -5 65 -14 75 -15 15 -66 20 -66 6 z "></path><path id="ppbM9Gi0M" d="M 1010 1185 c 0 -39 24 -49 33 -14 7 27 -1 49 -19 49 -9 0 -14 -12 -14 -35 z "></path><path id="poYWTukx3" d="M 740 1120 c 0 -13 7 -20 20 -20 13 0 20 7 20 20 0 13 -7 20 -20 20 -13 0 -20 -7 -20 -20 z "></path><path id="pbQqjsOxj" d="M 727 1068 c -28 -15 -19 -28 18 -28 39 0 45 9 17 27 -12 7 -24 8 -35 1 z "></path><path id="pgHhM1Efd" d="M 1280 994 c 0 -44 18 -42 37 4 13 31 12 32 -12 32 -22 0 -25 -4 -25 -36 z "></path><path id="ptHrkeISJ" d="M 1020 656 c 0 -25 4 -47 9 -51 5 -3 7 -22 4 -42 -6 -36 -6 -36 27 -30 18 4 38 7 46 7 33 0 53 122 22 141 -7 5 -27 6 -44 3 -18 -3 -35 -1 -38 5 -15 24 -26 9 -26 -33 z "></path></g></g><g id="l4r5gcARv17PMXhNmjGKOiI" fill="rgb(101,159,36)" style="transform: none;"><g style="transform: none;"><path id="pKlJ5A2Xq" d="M 840 1780 c 0 -21 16 -25 58 -14 39 11 27 34 -18 34 -33 0 -40 -3 -40 -20 z "></path><path id="pIXZq7T70" d="M 970 1786 c 0 -7 10 -16 23 -20 41 -11 57 -7 57 14 0 17 -7 20 -40 20 -27 0 -40 -4 -40 -14 z "></path><path id="p4KqTLDmm" d="M 743 1783 c -15 -3 -23 -12 -23 -24 0 -22 6 -23 66 -8 82 21 44 49 -43 32 z "></path><path id="p1HFzcfO7B" d="M 1060 1776 c 0 -8 20 -18 48 -25 26 -7 77 -23 115 -36 67 -24 67 -24 67 0 0 24 -17 35 -56 35 -13 0 -24 4 -24 8 0 10 -89 32 -126 32 -14 0 -24 -6 -24 -14 z "></path><path id="pYzdEdnhd" d="M 510 1674 c 0 -14 3 -24 8 -22 73 35 80 48 27 48 -31 0 -35 -3 -35 -26 z "></path><path id="pcoGs8MnW" d="M 1464 1577 c 32 -28 82 -79 112 -112 54 -60 54 -60 54 -22 0 31 -4 40 -20 44 -11 3 -20 12 -20 19 0 22 -67 84 -90 84 -13 0 -20 7 -20 20 0 16 -7 20 -37 20 -38 0 -38 0 21 -53 z "></path><path id="pnNgAX0vW" d="M 390 1589 c 0 -30 0 -30 30 -9 44 31 45 40 6 40 -33 0 -36 -2 -36 -31 z "></path><path id="puaTCwXy2" d="M 303 1535 c -7 -8 -13 -28 -13 -45 0 -25 -4 -30 -25 -30 -18 0 -25 -5 -25 -20 0 -11 -7 -20 -15 -20 -10 0 -15 -11 -15 -35 0 -28 -4 -35 -20 -35 -13 0 -20 -7 -20 -19 0 -11 -5 -21 -11 -23 -14 -5 -25 -98 -11 -98 5 0 30 42 55 93 48 97 64 121 136 199 44 48 44 48 10 48 -19 -1 -40 -7 -46 -15 z "></path><path id="pMzxzK36X" d="M 1640 1384 c 0 -12 65 -124 72 -124 4 0 8 16 8 35 0 19 -4 35 -9 35 -5 0 -11 14 -14 30 -5 24 -12 30 -32 30 -14 0 -25 -2 -25 -6 z "></path><path id="pKeNgs5hO" d="M 1733 1165 c 6 -19 16 -35 24 -35 8 0 13 13 13 35 0 30 -3 35 -24 35 -23 0 -24 -2 -13 -35 z "></path><path id="p1E9JKmLvE" d="M 770 1160 c 0 -11 -7 -20 -15 -20 -19 0 -20 -29 0 -36 16 -6 35 9 53 43 17 30 15 33 -13 33 -18 0 -25 -5 -25 -20 z "></path><path id="p16wtLe0lP" d="M 96 1113 c -9 -60 -7 -83 8 -83 9 0 18 19 25 50 14 67 14 70 -8 70 -14 0 -20 -10 -25 -37 z "></path><path id="p0Af61kuW" d="M 1157 1133 c 3 -10 15 -26 27 -36 20 -16 20 -18 4 -31 -25 -18 -12 -26 43 -26 48 0 59 9 59 50 0 24 -37 15 -45 -11 -4 -10 -10 -19 -15 -19 -16 0 -20 33 -7 49 32 37 30 41 -22 41 -44 0 -50 -2 -44 -17 z "></path><path id="pPbeYbL1v" d="M 1750 1098 c 0 -30 13 -58 26 -58 9 0 14 12 14 35 0 28 -4 35 -20 35 -11 0 -20 -6 -20 -12 z "></path><path id="p15QsDw1Ya" d="M 916 1078 c -10 -38 -7 -48 14 -48 16 0 20 7 20 35 0 40 -24 49 -34 13 z "></path><path id="pv8xqRzvx" d="M 1010 1045 c 0 -28 4 -35 20 -35 21 0 24 10 14 48 -10 36 -34 27 -34 -13 z "></path><path id="pS9QPJuIW" d="M 1290 1025 c 0 -39 14 -46 30 -16 16 31 12 51 -10 51 -16 0 -20 -7 -20 -35 z "></path><path id="p1BUVyLkzt" d="M 1760 935 c 0 -58 2 -65 20 -65 18 0 20 7 20 65 0 58 -2 65 -20 65 -18 0 -20 -7 -20 -65 z "></path><path id="pK5nT7cd6" d="M 80 940 c 0 -43 3 -50 20 -50 17 0 20 7 20 50 0 43 -3 50 -20 50 -17 0 -20 -7 -20 -50 z "></path><path id="pQMU1e0iq" d="M 90 828 c 0 -59 13 -98 31 -98 22 0 22 3 8 70 -11 51 -39 72 -39 28 z "></path><path id="p158R9eleB" d="M 1756 818 c -10 -38 -7 -48 14 -48 16 0 20 7 20 35 0 40 -24 49 -34 13 z "></path><path id="phtj4agWb" d="M 1732 711 c -16 -52 -15 -61 7 -61 20 0 31 25 31 73 0 41 -25 33 -38 -12 z "></path><path id="p7ll3g0HK" d="M 123 673 c 3 -26 10 -49 16 -51 6 -2 11 -14 11 -27 0 -13 6 -30 13 -37 8 -7 17 -26 21 -41 5 -20 12 -27 31 -27 14 0 25 2 25 4 0 3 -15 36 -34 73 -19 37 -40 87 -47 111 -18 61 -43 58 -36 -5 z "></path><path id="pSSFWnhB" d="M 1672 559 c -18 -33 -32 -62 -32 -65 0 -2 11 -4 25 -4 21 0 25 5 25 30 0 20 5 30 15 30 10 0 15 11 15 35 0 19 -4 35 -8 35 -4 0 -22 -27 -40 -61 z "></path><path id="pVdsjk4hp" d="M 250 436 c 0 -33 2 -36 31 -36 30 0 30 0 9 30 -31 44 -40 45 -40 6 z "></path><path id="pjChBlq2T" d="M 1589 428 c -79 -101 -188 -186 -315 -245 -41 -18 -74 -38 -74 -43 0 -6 16 -10 35 -10 19 0 35 5 35 10 0 6 11 10 25 10 14 0 25 5 25 10 0 6 9 10 20 10 11 0 20 7 20 15 0 9 9 15 25 15 14 0 25 5 25 10 0 6 7 10 15 10 8 0 15 5 15 10 0 6 7 10 15 10 8 0 15 7 15 15 0 8 9 15 20 15 11 0 20 7 20 15 0 8 5 15 10 15 21 0 60 49 60 75 0 20 5 25 25 25 22 0 25 4 25 35 0 19 -2 35 -4 35 -2 0 -19 -19 -37 -42 z "></path><path id="p1AISGmdEj" d="M 350 325 c 0 -33 2 -35 35 -35 19 0 35 2 35 3 0 2 -16 18 -35 36 -35 31 -35 31 -35 -4 z "></path><path id="pWOG36dcv" d="M 440 251 c 0 -32 22 -51 59 -51 12 0 21 -7 21 -15 0 -8 9 -15 20 -15 11 0 20 -4 20 -10 0 -5 16 -10 35 -10 49 0 44 15 -17 46 -29 15 -72 40 -95 56 -43 29 -43 29 -43 -1 z "></path><path id="puOH3xc0b" d="M 640 140 c 0 -16 7 -20 35 -20 39 0 46 14 16 30 -31 16 -51 12 -51 -10 z "></path><path id="pZprdvKmG" d="M 750 112 c 0 -16 10 -20 53 -26 78 -9 97 -8 97 8 0 15 -17 20 -102 31 -43 6 -48 4 -48 -13 z "></path><path id="pxumnctAI" d="M 1080 125 c -8 -2 -32 -6 -52 -10 -24 -4 -38 -11 -38 -20 0 -17 22 -18 94 -9 36 5 46 11 46 25 0 18 -12 21 -50 14 z "></path></g></g><g id="l5XiGXRehPPJ1OM5kgAuowc" fill="rgb(57,143,94)" style="transform: none;"><g style="transform: none;"><path id="p022UUPTf" d="M 1031 1396 c 2 -10 14 -23 27 -27 30 -11 25 8 -7 30 -22 14 -23 14 -20 -3 z "></path><path id="picQb4hx7" d="M 1268 1099 c -30 -17 -20 -29 24 -29 40 0 41 0 23 20 -21 23 -23 23 -47 9 z "></path><path id="p1ADxQTsrf" d="M 500 860 c 0 -14 7 -20 24 -20 13 0 26 -4 28 -9 2 -4 24 -10 50 -13 60 -7 53 6 -19 38 -65 29 -83 30 -83 4 z "></path><path id="pPNmLLEEV" d="M 450 829 c 0 -11 -4 -17 -10 -14 -23 14 -8 -17 24 -50 22 -22 44 -35 60 -35 19 0 26 -5 26 -19 0 -20 18 -31 51 -31 10 0 19 -4 19 -10 0 -5 15 -10 34 -10 19 0 36 -5 38 -11 2 -6 25 -13 51 -16 37 -5 47 -3 47 9 0 10 -17 20 -47 28 -113 28 -242 97 -228 120 3 5 -1 11 -7 13 -10 4 -9 8 2 16 12 9 11 11 -7 11 -12 0 -25 5 -28 10 -11 17 -25 11 -25 -11 z "></path><path id="p1EDcSj53b" d="M 870 675 c 0 -10 -10 -15 -30 -15 -23 0 -30 -4 -30 -20 0 -17 7 -20 45 -20 45 0 45 0 45 35 0 24 -5 35 -15 35 -8 0 -15 -7 -15 -15 z "></path><path id="pnxE8oxTF" d="M 880 430 c 0 -17 7 -20 40 -20 33 0 40 3 40 20 0 17 -7 20 -40 20 -33 0 -40 -3 -40 -20 z "></path><path id="pnNbJ34Na" d="M 860 376 c 0 -8 -5 -16 -11 -18 -6 -2 -1 -12 10 -22 21 -19 21 -19 21 17 0 21 -4 37 -10 37 -5 0 -10 -6 -10 -14 z "></path></g></g><g id="l1lQTa51jhlop3JZyUjqB0x" fill="rgb(61,169,55)" style="transform: none;"><g style="transform: none;"><path id="p10SFirBwa" d="M 940 1495 c 0 -3 12 -17 28 -30 22 -20 24 -24 10 -25 -13 0 -18 -8 -18 -28 0 -16 -8 -34 -20 -42 -14 -10 -20 -26 -20 -53 0 -39 1 -39 31 -33 17 3 40 6 50 6 16 0 19 8 19 46 0 38 3 45 16 40 13 -5 15 -2 9 16 -4 13 -9 37 -12 53 -3 17 -12 36 -21 43 -16 12 -72 17 -72 7 z  m 50 -110 c 0 -3 -2 -5 -5 -5 -3 0 -5 2 -5 5 0 3 2 5 5 5 3 0 5 -2 5 -5 z "></path><path id="pL0oqr3u0" d="M 918 1223 c -6 -28 2 -53 18 -53 9 0 14 11 14 35 0 37 -24 50 -32 18 z "></path><path id="pYf67vhCS" d="M 1200 1123 c 0 -38 0 -38 25 -9 31 37 31 46 0 46 -22 0 -25 -4 -25 -37 z "></path><path id="p4OWzv7SD" d="M 1260 1095 c 0 -3 2 -5 5 -5 3 0 5 2 5 5 0 3 -2 5 -5 5 -3 0 -5 -2 -5 -5 z "></path><path id="p1HGCchQEt" d="M 1017 703 c -4 -3 -7 -18 -7 -32 0 -15 -13 -40 -30 -58 -38 -41 -42 -93 -7 -92 47 1 92 15 96 29 12 48 12 62 -2 78 -8 9 -13 25 -12 34 2 10 -1 20 -6 24 -5 3 -7 10 -4 15 7 10 -18 13 -28 2 z "></path></g></g><g id="l3PTjovhA0HR77u5ybFaC2b" fill="rgb(27,159,65)" style="transform: none;"><g style="transform: none;"><path id="pla68zKOw" d="M 957 1494 c -4 -4 6 -18 21 -30 26 -23 26 -24 5 -24 -39 0 -26 -28 23 -51 32 -14 50 -17 57 -10 7 7 5 12 -6 17 -9 3 -14 10 -11 15 3 5 0 9 -5 9 -6 0 -11 13 -11 30 0 37 -50 67 -73 44 z "></path><path id="pj9OUFOs5" d="M 960 1331 c 0 -5 -9 -11 -20 -14 -18 -5 -20 -14 -20 -86 0 -74 2 -81 20 -81 15 0 20 7 20 28 0 15 4 33 9 41 10 15 14 5 26 -61 4 -29 11 -38 25 -38 16 0 20 7 21 38 1 20 0 42 -1 47 -2 6 -6 32 -11 59 -8 46 -29 75 -56 76 -7 0 -13 -4 -13 -9 z "></path><path id="pwvFYCHiZ" d="M 748 1223 c -6 -28 2 -53 18 -53 8 0 14 -9 14 -20 0 -25 9 -25 26 -2 20 26 17 52 -6 52 -13 0 -20 7 -20 20 0 25 -26 27 -32 3 z "></path><path id="pyawZ5JYO" d="M 1010 681 c 0 -16 -7 -34 -15 -41 -8 -7 -15 -17 -15 -23 0 -18 -43 -48 -54 -37 -13 13 -76 13 -76 0 0 -5 -9 -10 -20 -10 -36 0 -22 -29 18 -36 20 -4 47 -13 59 -21 14 -9 23 -11 28 -4 3 6 15 11 26 11 10 0 19 7 19 16 0 8 13 29 30 47 16 18 31 43 31 57 1 14 3 35 4 48 2 16 -3 22 -16 22 -14 0 -19 -7 -19 -29 z "></path></g></g><g id="l6S813ox2zawMTYheOcBap6" fill="rgb(72,142,37)" style="transform: none;"><g style="transform: none;"><path id="pBVBsBNu0" d="M 777 1790 c -27 -5 -80 -18 -118 -30 -61 -18 -69 -24 -69 -45 0 -24 0 -24 63 -1 58 22 123 38 210 51 23 4 37 11 37 20 0 17 -42 18 -123 5 z "></path><path id="priVU9b6k" d="M 990 1786 c 0 -15 17 -20 103 -31 42 -6 47 -4 47 13 0 16 -10 20 -52 26 -79 9 -98 8 -98 -8 z "></path><path id="pMhmsGwfc" d="M 1170 1750 c 0 -12 33 -30 54 -30 9 0 16 9 16 20 0 16 -7 20 -35 20 -19 0 -35 -4 -35 -10 z "></path><path id="pkggncbVn" d="M 1290 1700 c 0 -5 15 -17 33 -26 17 -9 58 -34 90 -56 57 -39 57 -39 57 -8 0 23 -4 30 -20 30 -11 0 -20 6 -20 14 0 15 -21 26 -51 26 -10 0 -19 7 -19 15 0 10 -11 15 -35 15 -19 0 -35 -4 -35 -10 z "></path><path id="pzMAgg0xN" d="M 470 1655 c 0 -22 -4 -25 -35 -25 -28 0 -35 -4 -35 -20 0 -14 -7 -20 -21 -20 -29 0 -49 -24 -49 -60 0 -32 0 -32 43 9 23 23 70 60 104 84 34 23 63 45 63 50 0 4 -16 7 -35 7 -31 0 -35 -3 -35 -25 z "></path><path id="p15H4Bi1aC" d="M 257 1483 c -4 -3 -7 -22 -7 -41 0 -30 2 -33 15 -22 9 7 25 26 36 42 20 28 20 28 -9 28 -16 0 -32 -3 -35 -7 z "></path><path id="p15befvt8O" d="M 184 1360 c -4 -16 -10 -30 -15 -30 -5 0 -9 -16 -9 -35 0 -23 -5 -35 -13 -35 -15 0 -37 -62 -37 -104 0 -50 26 -26 49 45 13 39 36 95 52 124 16 29 29 56 29 59 0 3 -11 6 -25 6 -20 0 -27 -6 -31 -30 z "></path><path id="p14YHVxr8r" d="M 1715 1223 c 13 -38 29 -92 35 -120 8 -36 17 -53 27 -53 13 0 15 9 10 52 -4 29 -11 54 -17 56 -5 2 -10 19 -10 38 0 19 -4 34 -10 34 -5 0 -10 14 -10 30 0 25 -4 30 -24 30 -25 0 -25 0 -1 -67 z "></path><path id="p4fyjIsjG" d="M 746 1173 c -7 -64 2 -81 32 -62 22 14 37 49 21 49 -5 0 -9 16 -9 35 0 27 -4 35 -19 35 -15 0 -19 -10 -25 -57 z "></path><path id="pDyUCWWjP" d="M 1140 1175 c 0 -2 7 -20 17 -39 20 -43 43 -53 61 -29 11 15 10 19 -8 27 -11 5 -20 17 -20 28 0 13 -7 18 -25 18 -14 0 -25 -2 -25 -5 z "></path><path id="pQxOa442w" d="M 90 1075 c 0 -40 24 -49 34 -12 10 37 7 47 -14 47 -16 0 -20 -7 -20 -35 z "></path><path id="pWSYEX3CZ" d="M 1248 1078 c -12 -18 -18 -20 -29 -12 -10 9 -22 7 -44 -6 -40 -22 -46 -50 -11 -50 14 0 26 5 26 10 0 6 20 10 45 10 45 0 45 0 45 35 0 40 -11 45 -32 13 z "></path><path id="pnLYB6fTk" d="M 1290 1050 c 0 -37 4 -50 15 -50 19 0 31 65 15 85 -22 26 -30 16 -30 -35 z "></path><path id="plXkJI20o" d="M 706 1054 c -22 -22 -21 -24 19 -24 28 0 35 4 35 20 0 24 -32 27 -54 4 z "></path><path id="p1AVWEwMlj" d="M 80 940 c 0 -81 2 -90 19 -90 17 0 19 9 19 90 0 81 -2 90 -19 90 -17 0 -19 -9 -19 -90 z "></path><path id="p10DrfNvsf" d="M 1760 1008 c 0 -39 12 -68 26 -68 10 0 14 13 14 45 0 38 -3 45 -20 45 -14 0 -20 -7 -20 -22 z "></path><path id="pIi3Ul2xi" d="M 1766 908 c -11 -42 -7 -58 14 -58 17 0 20 7 20 40 0 45 -23 57 -34 18 z "></path><path id="p1AxgSiAQq" d="M 90 805 c 0 -28 4 -35 20 -35 21 0 24 10 14 48 -10 36 -34 27 -34 -13 z "></path><path id="p1C4PKepHO" d="M 1751 786 c -15 -60 -14 -66 8 -66 19 0 31 34 31 86 0 41 -27 27 -39 -20 z "></path><path id="pacwToJuL" d="M 110 715 c 0 -28 4 -35 20 -35 21 0 24 10 14 48 -10 36 -34 27 -34 -13 z "></path><path id="pBIV54Hoq" d="M 1708 635 c -17 -45 -17 -45 6 -45 26 0 36 17 36 61 0 44 -23 35 -42 -16 z "></path><path id="p5N8oD8R7" d="M 200 508 c 0 -45 12 -60 43 -56 26 3 26 3 -1 45 -15 24 -30 43 -34 43 -5 0 -8 -15 -8 -32 z "></path><path id="p18890tv39" d="M 1623 477 c -24 -34 -50 -72 -59 -84 -16 -23 -16 -23 15 -23 24 0 31 4 31 20 0 11 7 20 15 20 8 0 15 7 15 15 0 8 5 15 10 15 6 0 10 7 10 15 0 8 5 15 10 15 6 0 10 16 10 35 0 19 -3 35 -7 35 -5 0 -27 -28 -50 -63 z "></path><path id="pDFPch0SO" d="M 290 392 c 0 -26 10 -43 44 -78 25 -24 52 -44 60 -44 9 0 16 -7 16 -15 0 -11 11 -15 38 -15 37 1 37 1 -8 38 -24 20 -68 62 -97 92 -53 55 -53 55 -53 22 z "></path><path id="p18FvOIOed" d="M 1480 310 c -35 -30 -35 -30 3 -30 35 0 37 2 37 30 0 17 -1 30 -2 30 -2 0 -19 -14 -38 -30 z "></path><path id="p1GsZq95kR" d="M 1393 247 c -42 -28 -41 -37 2 -37 32 0 35 2 35 30 0 17 -1 30 -2 29 -2 0 -18 -10 -35 -22 z "></path><path id="poOfD7fkS" d="M 540 186 c 0 -23 4 -26 35 -26 53 0 46 13 -27 48 -5 2 -8 -8 -8 -22 z "></path><path id="peT2jA8em" d="M 1282 185 c -29 -14 -79 -33 -112 -42 -62 -17 -82 -43 -34 -43 37 0 114 21 114 31 0 5 11 9 25 9 14 0 25 5 25 10 0 6 9 10 20 10 15 0 20 7 20 25 0 14 -1 25 -2 25 -2 -1 -27 -12 -56 -25 z "></path><path id="pFIhfs6ra" d="M 630 143 c 0 -20 5 -23 35 -23 19 0 35 -4 35 -9 0 -9 107 -31 153 -31 16 0 27 6 27 14 0 14 -29 26 -66 26 -12 0 -58 11 -103 23 -81 24 -81 24 -81 0 z "></path><path id="p15OkklGUr" d="M 1028 113 c -33 -8 -20 -33 17 -33 28 0 35 4 35 20 0 20 -14 23 -52 13 z "></path></g></g><g id="l3IEkOCv1ig5V9Q9jvQzEXE" fill="rgb(47,125,43)" style="transform: none;"><g style="transform: none;"><path id="pdfMPeNhc" d="M 753 1788 c -42 -8 -53 -13 -53 -29 0 -22 5 -23 63 -10 23 6 59 13 80 16 23 4 37 11 37 20 0 17 -44 18 -127 3 z "></path><path id="pvhsGu0jj" d="M 1010 1787 c 0 -11 13 -18 38 -22 65 -10 178 -44 233 -70 54 -25 54 -25 57 -4 5 27 -13 39 -55 39 -21 0 -33 5 -33 14 0 15 -30 26 -72 26 -14 0 -28 4 -30 9 -1 5 -33 12 -70 16 -58 6 -68 5 -68 -8 z "></path><path id="pGcwFJUdW" d="M 543 1718 c -13 -6 -23 -19 -23 -30 0 -14 -8 -18 -35 -18 -22 0 -38 -6 -41 -15 -4 -8 -12 -15 -20 -15 -8 0 -14 -7 -14 -15 0 -8 -9 -15 -20 -15 -11 0 -20 -7 -20 -15 0 -8 -5 -15 -10 -15 -14 0 -60 -46 -60 -60 0 -5 -7 -10 -15 -10 -8 0 -15 -9 -15 -20 0 -11 -7 -20 -15 -20 -10 0 -15 -10 -15 -30 0 -23 -4 -30 -20 -30 -16 0 -20 -7 -20 -35 0 -19 3 -35 8 -35 4 0 24 27 45 59 71 111 191 217 315 280 34 17 62 36 62 41 0 13 -59 12 -87 -2 z "></path><path id="pnLGeTSZ7" d="M 1394 1635 c 16 -14 32 -25 36 -25 3 0 38 -31 77 -70 120 -116 193 -240 234 -396 14 -53 27 -84 36 -84 7 0 13 11 13 24 0 37 -22 126 -32 126 -4 0 -8 14 -8 30 0 17 -4 30 -10 30 -5 0 -10 11 -10 25 0 14 -4 25 -10 25 -5 0 -10 9 -10 20 0 11 -7 20 -15 20 -8 0 -15 9 -15 21 0 34 -19 59 -45 59 -22 0 -25 4 -25 35 0 24 -5 35 -15 35 -8 0 -15 4 -15 10 0 19 -78 90 -99 90 -14 0 -21 6 -21 19 0 22 -19 31 -63 31 -32 0 -32 0 -3 -25 z "></path><path id="psrzwFMw1" d="M 140 1254 c 0 -44 18 -42 37 4 13 31 12 32 -12 32 -22 0 -25 -4 -25 -36 z "></path><path id="pLtoqAYNv" d="M 96 1123 c -20 -110 -21 -153 -2 -153 15 0 26 29 26 70 0 14 9 58 19 98 18 72 18 72 -5 72 -20 0 -23 -8 -38 -87 z "></path><path id="pijf1MvC0" d="M 754 1201 c 3 -4 2 -21 -3 -37 -16 -57 15 -75 46 -27 13 19 14 28 5 31 -6 2 -12 12 -12 23 0 13 -7 19 -21 19 -11 0 -18 -4 -15 -9 z "></path><path id="p155OqTso5" d="M 1140 1182 c 0 -4 6 -20 13 -35 17 -38 37 -34 37 8 0 31 -3 35 -25 35 -14 0 -25 -4 -25 -8 z "></path><path id="pIukqPKnl" d="M 1253 1081 c -4 -15 -14 -20 -44 -19 -42 0 -69 -19 -69 -51 0 -28 40 -28 60 -1 8 11 20 20 27 20 7 0 13 5 13 10 0 6 11 10 25 10 20 0 25 5 25 25 0 30 -29 35 -37 6 z "></path><path id="p12h8CI3Hi" d="M 1760 1033 c 0 -34 12 -63 26 -63 10 0 14 13 14 40 0 33 -3 40 -20 40 -12 0 -20 -7 -20 -17 z "></path><path id="pUQFW3Ngh" d="M 84 833 c 7 -80 61 -273 77 -273 5 0 9 -9 9 -20 0 -15 7 -20 26 -20 17 0 24 4 21 13 -55 126 -69 165 -81 228 -9 41 -18 91 -21 112 -4 25 -11 37 -22 37 -14 0 -15 -11 -9 -77 z "></path><path id="phIAKruUK" d="M 1766 888 c -11 -42 -7 -58 14 -58 17 0 20 7 20 40 0 45 -23 57 -34 18 z "></path><path id="p7oTwf48H" d="M 1741 738 c -26 -100 -26 -98 -2 -98 15 0 22 14 35 65 20 79 20 115 3 115 -9 0 -22 -31 -36 -82 z "></path><path id="pCCn4VPgN" d="M 1679 568 c -31 -62 -77 -133 -101 -160 -41 -43 -42 -48 -9 -48 28 0 31 3 31 30 0 25 4 30 25 30 16 0 25 6 25 15 0 8 5 15 10 15 6 0 10 16 10 35 0 27 4 35 18 35 22 0 42 39 42 80 0 46 -17 36 -51 -32 z "></path><path id="pUGdcHaU5" d="M 220 477 c 0 -20 5 -37 10 -37 6 0 10 -7 10 -15 0 -8 7 -15 15 -15 8 0 15 -9 15 -20 0 -23 18 -33 49 -28 19 3 17 8 -22 58 -23 30 -50 64 -59 74 -18 19 -18 19 -18 -17 z "></path><path id="p1GA7S9Neo" d="M 420 261 c 0 -28 3 -31 30 -31 23 0 30 -5 30 -19 0 -21 19 -31 61 -31 40 0 36 12 -13 40 -24 13 -58 34 -75 48 -33 24 -33 24 -33 -7 z "></path><path id="pmCnKwt2k" d="M 1430 270 c -14 -11 -46 -32 -72 -47 -55 -30 -60 -43 -19 -43 42 0 61 10 61 31 0 14 7 19 30 19 27 0 30 3 30 30 0 35 2 35 -30 10 z "></path><path id="pXK5Gzfxv" d="M 580 166 c 0 -25 16 -36 55 -36 13 0 25 -4 27 -10 3 -11 126 -40 171 -40 42 0 34 28 -10 35 -54 9 -162 40 -205 59 -38 16 -38 16 -38 -8 z "></path><path id="pByJWxgeZ" d="M 1243 165 c -43 -18 -42 -35 2 -35 31 0 35 3 35 25 0 14 -1 25 -2 25 -2 -1 -18 -7 -35 -15 z "></path><path id="p6Gq9AObE" d="M 1145 135 c -5 -2 -36 -9 -67 -15 -38 -8 -58 -16 -58 -26 0 -17 34 -18 112 -2 45 9 58 16 58 30 0 17 -19 22 -45 13 z "></path></g></g><g id="l1ZoDefBo2kxaTcR73PdwlI" fill="rgb(4,143,64)" style="transform: none;"><g style="transform: none;"><path id="p1077uI9qJ" d="M 960 1491 c 0 -6 9 -16 20 -23 11 -7 20 -16 20 -20 0 -5 -9 -8 -20 -8 -11 0 -20 -5 -20 -10 0 -16 62 -50 90 -50 23 1 23 2 8 14 -20 15 -14 26 14 26 21 0 23 11 6 28 -16 16 -28 15 -28 -3 0 -8 -9 -15 -19 -15 -15 0 -21 8 -23 33 -2 24 -8 33 -25 35 -13 2 -23 -1 -23 -7 z "></path><path id="pmlDk5fj6" d="M 945 1254 c -12 -17 -20 -46 -22 -85 -3 -54 -2 -59 17 -59 13 0 20 7 20 20 0 11 7 20 15 20 8 0 15 -9 15 -20 0 -15 7 -20 25 -20 29 0 29 3 14 67 -26 109 -46 127 -84 77 z "></path><path id="p18WJ4PR9i" d="M 750 1243 c 0 -43 11 -73 26 -73 10 0 14 14 14 50 0 43 -3 50 -20 50 -15 0 -20 -7 -20 -27 z "></path><path id="pyvDS7dtO" d="M 800 1205 c 0 -19 5 -35 10 -35 6 0 10 7 10 15 0 8 5 15 10 15 6 0 10 9 10 20 0 13 -7 20 -20 20 -16 0 -20 -7 -20 -35 z "></path><path id="pumfDqC3H" d="M 1153 1045 c -20 -22 -16 -45 7 -45 16 0 20 6 18 30 -3 33 -7 36 -25 15 z  m 7 -20 c 0 -3 -2 -5 -5 -5 -3 0 -5 2 -5 5 0 3 2 5 5 5 3 0 5 -2 5 -5 z "></path><path id="p1DQF5ZkJd" d="M 600 830 c 0 -5 5 -10 10 -10 6 0 10 5 10 10 0 6 -4 10 -10 10 -5 0 -10 -4 -10 -10 z "></path><path id="p9z2idR3L" d="M 630 815 c 0 -3 2 -5 5 -5 3 0 5 2 5 5 0 3 -2 5 -5 5 -3 0 -5 -2 -5 -5 z "></path><path id="p16NBvblDc" d="M 870 666 c 0 -11 -13 -13 -60 -9 -56 5 -60 4 -60 -16 0 -19 -5 -21 -55 -21 -88 0 -72 -21 44 -59 69 -22 141 -28 141 -10 0 5 5 7 10 4 6 -3 10 -14 10 -25 0 -23 29 -35 36 -15 8 20 -4 64 -21 82 -8 8 -15 30 -15 49 0 24 -5 34 -15 34 -8 0 -15 -6 -15 -14 z "></path><path id="pzJNGuJkj" d="M 970 584 c 0 -39 9 -38 40 6 21 30 21 30 -9 30 -29 0 -31 -3 -31 -36 z "></path></g></g><g id="l30Yy95UqimHrq3LirkiDP6" fill="rgb(32,117,61)" style="transform: none;"><g style="transform: none;"><path id="pAdRGLD32" d="M1872.6197899865824 941.2304991470123 C 1872.6197899865824 1457.555061370364 1454.0560316808087 1876.1188196761377 937.7314694574568 1876.1188196761377 421.406907234105 1876.1188196761377 2.84314892833129 1457.555061370364 2.84314892833129 941.2304991470123 2.84314892833129 424.9059369236605 421.406907234105 6.34217861788682 937.7314694574568 6.34217861788682 1454.0560316808087 6.34217861788682 1872.6197899865824 424.9059369236605 1872.6197899865824 941.2304991470123 Z M770.0 1865.0  m 286 -45 c 32 -6 68 -14 79 -19 41 -17 92 -31 112 -31 11 0 32 -9 46 -20 14 -11 32 -20 41 -20 9 0 16 -4 16 -10 0 -5 5 -10 11 -10 12 0 102 -61 107 -72 2 -5 9 -8 16 -8 15 0 126 -107 126 -121 0 -6 12 -23 28 -37 15 -15 39 -48 52 -74 14 -27 28 -48 32 -48 5 0 8 -8 8 -18 0 -11 9 -27 20 -37 11 -10 20 -30 20 -45 0 -16 9 -58 20 -94 23 -73 44 -273 31 -290 -4 -6 -11 -38 -15 -71 -4 -33 -13 -70 -21 -82 -8 -12 -15 -42 -15 -66 0 -31 -6 -49 -20 -62 -11 -10 -20 -24 -20 -32 0 -8 -7 -21 -15 -29 -13 -14 -15 -12 -15 15 0 39 -11 39 -33 2 -22 -37 -21 -41 3 -41 27 0 28 -46 1 -53 -11 -3 -23 -21 -32 -51 -7 -25 -19 -46 -27 -46 -18 0 -62 -46 -62 -65 0 -9 -9 -15 -24 -15 -19 0 -25 6 -28 25 -3 26 -3 26 -38 -4 -35 -30 -35 -30 -2 -31 34 0 34 0 4 -25 -37 -31 -42 -31 -42 1 0 25 0 25 -27 6 -16 -11 -47 -29 -70 -41 -51 -26 -55 -41 -10 -42 25 -1 28 -3 12 -8 -11 -4 -36 -14 -55 -23 -92 -41 -251 -78 -340 -78 -81 0 -269 46 -345 84 -16 8 -41 20 -55 26 -41 18 -69 36 -100 64 -16 14 -33 26 -37 26 -5 0 -30 23 -56 50 -27 28 -53 50 -58 50 -5 0 -9 6 -9 13 0 7 -8 22 -18 33 -61 66 -133 209 -161 322 -6 23 -16 61 -23 85 -16 60 -12 243 7 292 15 40 15 40 9 -27 -5 -57 -4 -68 9 -68 16 0 21 16 32 93 7 43 6 47 -14 47 -27 0 -27 30 -2 85 19 40 19 40 20 8 1 -44 25 -43 38 2 11 33 10 35 -13 35 -13 0 -24 3 -24 6 0 12 82 160 100 182 11 12 20 25 20 29 0 19 207 203 228 203 6 0 12 5 12 10 0 6 7 10 15 10 8 0 29 8 47 18 144 80 354 118 504 92 z  m 344 -1627 c -8 -3 -23 -12 -32 -21 -16 -14 -18 -13 -18 6 0 18 6 22 33 21 17 0 25 -3 17 -6 z "></path><path id="pcs1Z9B5" d="M 1110 1770 c 0 -12 33 -30 54 -30 9 0 16 9 16 20 0 16 -7 20 -35 20 -19 0 -35 -4 -35 -10 z "></path><path id="pxaRtM6w5" d="M 1310 1692 c 0 -8 52 -42 64 -42 3 0 6 11 6 25 0 22 -4 25 -35 25 -19 0 -35 -4 -35 -8 z "></path><path id="pVkZOXEUX" d="M 360 1569 c 0 -34 2 -33 54 14 19 17 19 17 -17 17 -35 0 -37 -2 -37 -31 z "></path><path id="pHKQgAYQp" d="M 1551 1503 c 8 -10 22 -27 32 -37 17 -19 17 -19 17 17 0 35 -2 37 -31 37 -28 0 -30 -2 -18 -17 z "></path><path id="pp4htjDtz" d="M 725 1393 c 25 -61 37 -215 21 -260 -7 -19 -5 -23 13 -23 12 0 21 6 21 15 0 8 4 15 10 15 18 0 50 83 50 130 0 34 -8 58 -30 93 -25 40 -34 47 -61 47 -26 0 -30 -3 -24 -17 z "></path><path id="pqjsN6XuH" d="M 1133 1320 c -13 -15 -23 -32 -23 -36 0 -20 35 -124 42 -124 4 0 8 -8 8 -18 0 -22 19 -42 40 -42 20 0 54 52 76 117 20 58 10 84 -29 80 -17 -2 -23 4 -25 26 -3 23 -8 27 -35 26 -23 0 -38 -8 -54 -29 z "></path><path id="p4UUAtvxL" d="M 1672 1333 c 35 -74 48 -81 48 -28 0 31 -3 35 -26 35 -14 0 -24 -3 -22 -7 z "></path><path id="p1EY51gUrz" d="M 1720 1224 c 0 -21 18 -54 30 -54 6 0 10 16 10 35 0 28 -4 35 -20 35 -11 0 -20 -7 -20 -16 z "></path><path id="pjqx524cH" d="M 916 1073 c -4 -32 -9 -75 -13 -96 -6 -38 -5 -39 23 -35 25 3 30 9 38 46 8 38 26 59 26 30 0 -7 5 -30 11 -50 7 -29 15 -38 31 -38 20 0 21 3 14 84 -8 116 -8 116 -71 116 -52 0 -52 0 -59 -57 z "></path><path id="pJsdsPl40" d="M 1255 1081 c -5 -17 -15 -21 -49 -21 -35 0 -45 -4 -56 -24 -15 -29 -16 -70 -2 -99 6 -12 13 -30 16 -39 10 -33 69 -14 123 38 18 17 35 85 31 124 -2 29 -7 35 -30 38 -19 2 -28 -2 -33 -17 z  m -75 -36 c 0 -3 -2 -5 -5 -5 -3 0 -5 2 -5 5 0 3 2 5 5 5 3 0 5 -2 5 -5 z  m -20 -20 c 0 -3 -2 -5 -5 -5 -3 0 -5 2 -5 5 0 3 2 5 5 5 3 0 5 -2 5 -5 z "></path><path id="p3ySjYr2F" d="M843.8617121483219 982.2324766398294 C 843.8617121483219 1029.289985430887 805.7140639882646 1067.4376335909444 758.6565551972069 1067.4376335909444 711.5990464061492 1067.4376335909444 673.4513982460919 1029.289985430887 673.4513982460919 982.2324766398294 673.4513982460919 935.1749678487718 711.5990464061492 897.0273196887144 758.6565551972069 897.0273196887144 805.7140639882646 897.0273196887144 843.8617121483219 935.1749678487718 843.8617121483219 982.2324766398294 Z M719.0 1063.0 "></path><path id="pQlyjACDO" d="M 1760 1048 c 0 -30 13 -58 26 -58 9 0 14 12 14 35 0 28 -4 35 -20 35 -11 0 -20 -6 -20 -12 z "></path><path id="pOuJk5zr5" d="M 1766 868 c -10 -38 -7 -48 14 -48 16 0 20 7 20 35 0 40 -24 49 -34 13 z "></path><path id="p3jOVZ1Ha" d="M 80 845 c 0 -28 4 -35 20 -35 21 0 24 10 14 48 -10 36 -34 27 -34 -13 z "></path><path id="pCUv0ZfG6" d="M 462 868 c -7 -7 -12 -25 -12 -41 0 -19 -4 -26 -11 -21 -22 13 26 -59 73 -111 64 -70 101 -87 156 -73 34 8 42 15 42 33 0 16 -8 25 -27 30 -79 19 -183 87 -183 119 0 13 11 16 60 16 33 0 60 4 60 9 0 12 -93 51 -122 51 -13 0 -29 -5 -36 -12 z "></path><path id="p1FGBX6Sg4" d="M 1010 734 c 0 -38 3 -45 18 -42 12 2 18 15 20 46 3 37 1 42 -17 42 -18 0 -21 -6 -21 -46 z "></path><path id="p136YyTY3" d="M 876 694 c -12 -32 -6 -112 10 -128 8 -9 16 -25 17 -36 2 -25 18 -31 40 -15 15 11 16 17 6 39 -7 14 -18 26 -26 26 -9 0 -13 17 -13 65 0 49 -3 65 -14 65 -8 0 -17 -7 -20 -16 z "></path><path id="pkwWQv1Vt" d="M 1723 665 c -11 -33 -10 -35 13 -35 21 0 24 5 24 35 0 22 -5 35 -13 35 -8 0 -18 -16 -24 -35 z "></path><path id="p17e8qOTTx" d="M 993 452 c -25 -2 -33 -8 -33 -23 0 -16 7 -19 50 -19 28 0 50 4 50 8 0 19 -37 37 -67 34 z "></path><path id="p15CavwXQR" d="M 872 437 c -5 -7 -12 -31 -15 -54 -4 -33 -1 -45 14 -59 18 -16 19 -16 19 19 0 48 9 67 31 67 11 0 19 7 19 18 0 20 -53 28 -68 9 z "></path><path id="pQpnQGyhP" d="M 1098 123 c -33 -8 -20 -33 17 -33 28 0 35 4 35 20 0 20 -14 23 -52 13 z "></path><path id="pJ6ZW8nCu" d="M 780 100 c 0 -16 7 -20 35 -20 40 0 49 24 13 34 -38 10 -48 7 -48 -14 z "></path></g></g><g id="lqccb2hZua1eJnSZTVUA7M" fill="rgb(11,128,58)" style="transform: none;"><g style="transform: none;"><path id="pIZNWWpli" d="M 1020 1875 c 0 -3 2 -5 5 -5 3 0 5 2 5 5 0 3 -2 5 -5 5 -3 0 -5 -2 -5 -5 z "></path><path id="p19kXcvQUb" d="M 810 1865 c 0 -3 2 -5 5 -5 3 0 5 2 5 5 0 3 -2 5 -5 5 -3 0 -5 -2 -5 -5 z "></path><path id="pN1VSSGBM" d="M 855 1861 c -3 -6 -22 -11 -41 -11 -19 0 -34 -4 -34 -10 0 -6 28 -10 65 -10 51 0 65 3 65 15 0 8 -4 15 -9 15 -5 0 -16 3 -24 6 -8 3 -18 1 -22 -5 z "></path><path id="pHl5ixkEa" d="M 1018 1862 c -52 -6 -25 -32 33 -32 16 0 29 5 29 10 0 6 -6 10 -14 10 -8 0 -16 3 -18 8 -1 4 -15 6 -30 4 z "></path><path id="p1GDkjU2nw" d="M 960 1492 c 0 -4 9 -14 20 -22 23 -17 26 -30 6 -30 -9 0 -12 -7 -9 -18 3 -11 20 -21 50 -28 36 -9 43 -9 30 1 -19 14 -12 25 14 25 29 0 11 28 -36 55 -41 25 -75 32 -75 17 z "></path><path id="pkD1XEtMl" d="M 724 1425 c -4 -9 -1 -28 4 -43 6 -15 14 -49 17 -77 4 -27 9 -59 13 -70 5 -18 6 -18 13 5 13 46 10 103 -8 122 -15 17 -15 18 12 18 29 0 29 0 0 30 -32 34 -43 37 -51 15 z "></path><path id="pHBtqlcCN" d="M 1176 1408 c -9 -12 -16 -30 -16 -39 0 -10 -11 -31 -25 -47 -14 -17 -25 -34 -25 -38 0 -25 36 -124 46 -128 10 -4 9 7 -2 42 -23 74 -24 79 -5 101 23 26 51 27 51 2 0 -11 12 -23 30 -31 17 -7 30 -19 30 -27 0 -28 -23 -103 -31 -103 -5 0 -9 5 -9 10 0 6 -9 10 -21 10 -21 0 -21 0 2 -20 13 -10 19 -19 12 -20 -6 0 -13 5 -15 11 -2 5 -11 7 -20 4 -23 -9 -1 -34 24 -27 26 6 44 31 68 91 27 69 21 103 -18 99 -26 -3 -27 -2 -32 61 -5 70 -19 85 -44 49 z "></path><path id="pmA54TPMQ" d="M 800 1348 c 0 -18 5 -28 15 -28 19 0 19 11 0 36 -14 18 -14 18 -15 -8 z "></path><path id="p3rxnlXPg" d="M 819 1203 c -13 -16 -12 -17 4 -4 9 7 17 15 17 17 0 8 -8 3 -21 -13 z "></path><path id="p3CbISEPf" d="M 782 1203 c -6 -2 -10 -9 -6 -14 3 -5 1 -9 -4 -9 -9 0 -32 -43 -32 -60 0 -6 10 -10 23 -10 15 0 18 3 9 8 -9 6 -6 11 11 19 19 9 23 17 19 42 -2 17 -5 31 -6 30 0 0 -7 -3 -14 -6 z  m -9 -48 c -3 -9 -8 -14 -10 -11 -3 3 -2 9 2 15 9 16 15 13 8 -4 z "></path><path id="pIUVugqjU" d="M1034.966078970432 1128.2026670858539 C 1034.966078970432 1160.8630554652877 1008.4896029163866 1187.3395315193331 975.8292145369528 1187.3395315193331 943.168826157519 1187.3395315193331 916.69235010347353 1160.8630554652877 916.69235010347353 1128.2026670858539 916.69235010347353 1095.5422787064201 943.168826157519 1069.0658026523747 975.8292145369528 1069.0658026523747 1008.4896029163866 1069.0658026523747 1034.966078970432 1095.5422787064201 1034.966078970432 1128.2026670858539 Z M942.0 1184.0 "></path><path id="pijNrD81d" d="M 1180 1195 c 0 -3 2 -5 5 -5 3 0 5 2 5 5 0 3 -2 5 -5 5 -3 0 -5 -2 -5 -5 z "></path><path id="p1H3fNSJwG" d="M 1210 1195 c 0 -3 2 -5 5 -5 3 0 5 2 5 5 0 3 -2 5 -5 5 -3 0 -5 -2 -5 -5 z "></path><path id="pej7y83pN" d="M 810 1175 c 0 -3 2 -5 5 -5 3 0 5 2 5 5 0 3 -2 5 -5 5 -3 0 -5 -2 -5 -5 z "></path><path id="p1HpukuCGa" d="M 1267 1081 c 3 -12 9 -21 14 -21 14 0 11 16 -5 29 -12 10 -13 8 -9 -8 z "></path><path id="pU6zNB9PB" d="M 1250 1075 c 0 -3 2 -5 5 -5 3 0 5 2 5 5 0 3 -2 5 -5 5 -3 0 -5 -2 -5 -5 z "></path><path id="pVXjsayGj" d="M 719 1063 c -21 -5 -39 -45 -39 -84 0 -35 26 -79 47 -79 12 0 12 2 -1 16 -9 8 -16 18 -17 22 0 4 -2 16 -4 27 -5 22 15 86 24 81 3 -2 12 2 19 10 14 15 6 17 -29 7 z "></path><path id="p2sNx93D7" d="M 946 1061 c -11 -19 -16 -71 -7 -71 5 0 11 12 13 28 2 21 9 28 31 30 26 3 27 1 27 -37 0 -28 4 -41 14 -41 11 0 11 9 3 44 -9 40 -13 45 -44 48 -19 2 -36 2 -37 -1 z "></path><path id="p136wWmxjL" d="M 780 1045 c 0 -8 4 -15 9 -15 5 0 17 -7 26 -16 9 -9 18 -14 21 -12 9 10 -8 36 -32 46 -19 10 -24 9 -24 -3 z "></path><path id="p1DWMS96Lt" d="M 912 1040 c 0 -14 2 -19 5 -12 2 6 2 18 0 25 -3 6 -5 1 -5 -13 z "></path><path id="pFmdBOeWI" d="M 1153 1038 c -19 -39 -23 -58 -13 -58 10 0 14 13 11 36 -2 19 26 37 35 23 4 -8 3 -9 -4 -5 -7 4 -12 3 -12 -2 0 -6 7 -12 15 -16 11 -4 15 1 15 19 0 32 -32 34 -47 3 z "></path><path id="pAlq217eh" d="M 750 1039 c 0 -5 5 -7 10 -4 6 3 10 8 10 11 0 2 -4 4 -10 4 -5 0 -10 -5 -10 -11 z "></path><path id="p0Ia1ZzvR" d="M 1223 1043 c 4 -3 10 -3 14 0 3 4 0 7 -7 7 -7 0 -10 -3 -7 -7 z "></path><path id="pqSmEGp1N" d="M 1300 1013 c 0 -24 -3 -33 -8 -25 -6 8 -9 2 -9 -18 0 -59 23 -23 33 53 2 15 -1 27 -6 27 -6 0 -10 -17 -10 -37 z "></path><path id="p9hBP0fZ8" d="M 1042 1020 c 0 -14 2 -19 5 -12 2 6 2 18 0 25 -3 6 -5 1 -5 -13 z "></path><path id="pEPcUcqwD" d="M 1830 945 c 0 -57 3 -75 14 -75 15 0 26 30 26 75 0 45 -11 75 -26 75 -11 0 -14 -18 -14 -75 z  m 27 13 c -3 -8 -6 -5 -6 6 -1 11 2 17 5 13 3 -3 4 -12 1 -19 z "></path><path id="pOUaKr8kq" d="M 1180 975 c 0 -3 2 -5 5 -5 3 0 5 2 5 5 0 3 -2 5 -5 5 -3 0 -5 -2 -5 -5 z "></path><path id="pHSu556jS" d="M 815 936 c -9 -13 -29 -27 -43 -29 -25 -4 -25 -4 4 -6 24 -1 36 5 49 25 9 14 14 28 12 31 -3 2 -13 -7 -22 -21 z "></path><path id="p1oMGnnlS" d="M 1140 951 c 0 -6 5 -13 10 -16 6 -3 10 1 10 9 0 9 -4 16 -10 16 -5 0 -10 -4 -10 -9 z "></path><path id="pekHCgjxu" d="M 1260 932 c 0 -5 -13 -15 -30 -22 -26 -11 -41 -30 -24 -30 16 0 74 49 65 55 -6 3 -11 2 -11 -3 z "></path><path id="p19wAKo5T6" d="M 520 849 c 0 -23 10 -24 36 -4 21 16 20 16 -13 20 -17 2 -23 -3 -23 -16 z "></path><path id="pJfy7k9M3" d="M 586 843 c -12 -12 -5 -23 14 -23 11 0 20 4 20 9 0 11 -26 22 -34 14 z "></path><path id="p1GdIL91Ts" d="M 530 733 c 0 -28 3 -32 33 -36 30 -4 29 -4 -8 -6 -40 -2 -40 -2 -6 -16 42 -19 47 -19 55 0 8 22 -2 41 -32 56 -15 8 -30 18 -34 24 -4 5 -8 -4 -8 -22 z "></path><path id="pJVAZMqtO" d="M 620 700 c 0 -7 3 -10 7 -7 3 4 3 10 0 14 -4 3 -7 0 -7 -7 z "></path><path id="pW0kCL6Mr" d="M 645 690 c 4 -6 13 -10 21 -10 30 0 12 -18 -27 -28 -28 -7 -50 -7 -68 -1 -37 14 -16 -3 41 -35 56 -31 168 -38 168 -11 0 8 5 15 10 15 6 0 10 6 10 14 0 9 -22 21 -52 31 -29 9 -66 21 -81 25 -17 6 -25 6 -22 0 z "></path><path id="pfG3K54DX" d="M 877 693 c -3 -5 -4 -34 -3 -65 1 -44 6 -61 21 -72 11 -9 16 -16 12 -16 -5 0 -2 -7 7 -15 20 -21 34 -12 84 50 46 59 53 85 22 85 -16 0 -20 -7 -20 -35 0 -32 -2 -35 -29 -35 -17 0 -33 -5 -37 -12 -11 -18 -22 19 -23 75 -1 34 -5 47 -15 47 -8 0 -17 -3 -19 -7 z "></path><path id="pipL4LBe8" d="M 900 515 c 0 -3 2 -5 5 -5 3 0 5 2 5 5 0 3 -2 5 -5 5 -3 0 -5 -2 -5 -5 z "></path><path id="pl95rGO5j" d="M 1720 493 c 0 -27 0 -27 20 -5 11 12 20 24 20 27 0 3 -9 5 -20 5 -15 0 -20 -7 -20 -27 z "></path><path id="pWZh4chOm" d="M 1750 485 c 0 -3 2 -5 5 -5 3 0 5 2 5 5 0 3 -2 5 -5 5 -3 0 -5 -2 -5 -5 z "></path><path id="p1FwPw353" d="M 1020 455 c 0 -3 2 -5 5 -5 3 0 5 2 5 5 0 3 -2 5 -5 5 -3 0 -5 -2 -5 -5 z "></path><path id="p1CuxlmSWk" d="M 990 430 c 0 -5 16 -10 36 -10 21 0 33 4 29 10 -3 6 -19 10 -36 10 -16 0 -29 -4 -29 -10 z "></path></g></g><g id="l1dw6NgdsYsc9WwUyGdB5rI" fill="rgb(12,107,47)" style="transform: none;"><g style="transform: none;"><path id="pGib9ZtWb" d="M 805 1850 c -99 -16 -212 -53 -283 -92 -18 -10 -39 -18 -47 -18 -8 0 -15 -4 -15 -10 0 -5 -6 -10 -12 -10 -22 0 -228 -185 -228 -204 0 -4 -9 -17 -21 -29 -34 -36 -127 -237 -144 -312 -43 -186 -41 -302 9 -510 20 -81 104 -241 156 -298 11 -11 20 -27 20 -34 0 -7 4 -13 9 -13 12 0 99 -89 93 -95 -3 -3 2 -5 11 -5 10 0 31 -12 47 -26 31 -28 59 -46 100 -64 14 -6 39 -18 55 -26 35 -18 122 -45 217 -68 147 -36 368 -9 533 63 99 44 146 71 184 104 14 13 21 16 17 7 -4 -8 1 -5 10 7 9 13 21 23 26 23 19 0 118 108 133 144 9 20 22 36 30 36 9 0 15 9 15 23 0 13 9 33 20 45 11 12 20 27 20 33 0 7 9 22 19 33 12 13 20 39 22 66 2 25 9 55 17 67 8 12 16 48 19 80 3 32 9 63 14 69 10 12 8 244 -2 244 -4 0 -9 17 -12 38 -9 55 -12 66 -20 79 -4 7 -11 35 -14 62 -3 30 -13 57 -24 67 -11 10 -19 25 -19 36 0 10 -3 18 -8 18 -4 0 -18 21 -32 48 -13 26 -33 55 -43 64 -11 10 -16 22 -11 29 5 9 2 10 -9 6 -11 -4 -17 -1 -17 8 0 17 -109 125 -126 125 -7 0 -14 3 -16 8 -5 11 -95 72 -107 72 -6 0 -11 5 -11 10 0 6 -7 10 -16 10 -9 0 -27 9 -41 20 -14 11 -35 20 -46 20 -22 0 -81 17 -109 31 -10 5 -27 9 -37 9 -11 0 -22 4 -25 8 -6 11 -238 12 -301 2 z  M1770.278084116504 939.5297020227395 C 1770.278084116504 481.1594632259473 1398.6955875950491 109.5769667044924 940.325348798257 109.5769667044924 481.9551100014648 109.5769667044924 110.37261348000993 481.1594632259473 110.37261348000993 939.5297020227395 110.37261348000993 1397.8999408195316 481.9551100014648 1769.4824373409865 940.325348798257 1769.4824373409865 1398.6955875950491 1769.4824373409865 1770.278084116504 1397.8999408195316 1770.278084116504 939.5297020227395 Z M1165.0 1742.0 "></path><path id="peJahp7EV" d="M 1190 1255 c 0 -3 2 -5 5 -5 3 0 5 2 5 5 0 3 -2 5 -5 5 -3 0 -5 -2 -5 -5 z "></path><path id="pflHLnt7Y" d="M 1190 1235 c 0 -3 2 -5 5 -5 3 0 5 2 5 5 0 3 -2 5 -5 5 -3 0 -5 -2 -5 -5 z "></path><path id="poyIMhnX4" d="M 1190 1215 c 0 -3 2 -5 5 -5 3 0 5 2 5 5 0 3 -2 5 -5 5 -3 0 -5 -2 -5 -5 z "></path><path id="pZunX85ON" d="M 782 1203 c -6 -3 -10 -9 -6 -14 3 -5 0 -9 -5 -9 -6 0 -11 -5 -11 -11 0 -5 5 -7 11 -3 8 4 8 0 0 -15 -12 -22 -5 -27 17 -12 17 11 12 70 -6 64 z "></path><path id="pjkTIkhGk" d="M 810 1195 c 0 -3 2 -5 5 -5 3 0 5 2 5 5 0 3 -2 5 -5 5 -3 0 -5 -2 -5 -5 z "></path><path id="p1FjWpIYcJ" d="M 1188 1193 c 6 -2 18 -2 25 0 6 3 1 5 -13 5 -14 0 -19 -2 -12 -5 z "></path><path id="pCHKu5J9y" d="M 1190 1175 c 0 -3 2 -5 5 -5 3 0 5 2 5 5 0 3 -2 5 -5 5 -3 0 -5 -2 -5 -5 z "></path><path id="p17qOGWCkK" d="M 1160 1155 c 0 -3 2 -5 5 -5 3 0 5 2 5 5 0 3 -2 5 -5 5 -3 0 -5 -2 -5 -5 z "></path><path id="pLI5Zj4PY" d="M 1181 1157 c 2 -1 12 -9 22 -16 14 -12 17 -11 17 3 0 10 -8 16 -22 16 -12 0 -19 -1 -17 -3 z "></path><path id="pHDmYSFMZ" d="M 1180 1121 c 0 -14 5 -18 20 -14 16 4 17 7 5 19 -18 19 -25 18 -25 -5 z "></path><path id="pMPDN8MQp" d="M 1267 1081 c 4 -14 13 -21 30 -21 23 0 24 2 12 18 -21 27 -23 28 -15 8 7 -19 6 -19 -13 -2 -19 17 -19 17 -14 -3 z "></path><path id="p19UCscpey" d="M 945 1060 c -2 -3 -6 -22 -10 -43 -4 -21 -14 -41 -21 -44 -9 -3 -14 -21 -14 -52 0 -25 -5 -73 -10 -106 -6 -33 -11 -99 -11 -148 0 -74 4 -92 23 -120 13 -17 24 -34 25 -36 6 -9 104 106 110 129 13 47 8 323 -6 372 -13 42 -17 47 -48 50 -19 2 -36 2 -38 -2 z "></path><path id="pGoslWAh6" d="M 1184 1044 c 3 -8 2 -12 -4 -9 -6 3 -10 2 -10 -3 0 -6 7 -12 15 -16 11 -4 15 1 15 19 0 14 -5 25 -11 25 -6 0 -8 -7 -5 -16 z "></path><path id="pFAV69AxN" d="M 750 1040 c 0 -7 3 -10 7 -7 3 4 3 10 0 14 -4 3 -7 0 -7 -7 z "></path><path id="p1ElpYPNFp" d="M 1216 1041 c -3 -5 0 -14 7 -19 10 -8 13 -6 14 9 2 19 -11 26 -21 10 z  m 14 -6 c 0 -3 -2 -5 -5 -5 -3 0 -5 2 -5 5 0 3 2 5 5 5 3 0 5 -2 5 -5 z "></path><path id="p6wPALWb4" d="M 1300 1034 c 0 -8 5 -12 10 -9 6 3 10 10 10 16 0 5 -4 9 -10 9 -5 0 -10 -7 -10 -16 z "></path><path id="pMyr0BydW" d="M 1250 1035 c 0 -3 2 -5 5 -5 3 0 5 2 5 5 0 3 -2 5 -5 5 -3 0 -5 -2 -5 -5 z "></path><path id="pZiLAKga" d="M 770 995 c 0 -3 2 -5 5 -5 3 0 5 2 5 5 0 3 -2 5 -5 5 -3 0 -5 -2 -5 -5 z "></path><path id="p16060LDJq" d="M 1190 995 c 0 -3 2 -5 5 -5 3 0 5 2 5 5 0 3 -2 5 -5 5 -3 0 -5 -2 -5 -5 z "></path><path id="pwlFqpEVM" d="M 1210 995 c 0 -3 2 -5 5 -5 3 0 5 2 5 5 0 3 -2 5 -5 5 -3 0 -5 -2 -5 -5 z "></path><path id="pwYpHPX96" d="M 1230 995 c 0 -3 2 -5 5 -5 3 0 5 2 5 5 0 3 -2 5 -5 5 -3 0 -5 -2 -5 -5 z "></path><path id="pUHyVtxiA" d="M 1280 990 c 0 -7 3 -10 7 -7 3 4 3 10 0 14 -4 3 -7 0 -7 -7 z "></path><path id="pIF13oB82" d="M 750 975 c 0 -3 2 -5 5 -5 3 0 5 2 5 5 0 3 -2 5 -5 5 -3 0 -5 -2 -5 -5 z "></path><path id="pKHimDJTy" d="M 770 975 c 0 -3 2 -5 5 -5 3 0 5 2 5 5 0 3 -2 5 -5 5 -3 0 -5 -2 -5 -5 z "></path><path id="pxMvXRChA" d="M 1185 970 c 3 -5 8 -10 11 -10 2 0 4 5 4 10 0 6 -5 10 -11 10 -5 0 -7 -4 -4 -10 z "></path><path id="pe9O35Dum" d="M 1211 964 c 0 -11 3 -14 6 -6 3 7 2 16 -1 19 -3 4 -6 -2 -5 -13 z "></path><path id="pR3rPrXX1" d="M 1230 975 c 0 -3 2 -5 5 -5 3 0 5 2 5 5 0 3 -2 5 -5 5 -3 0 -5 -2 -5 -5 z "></path><path id="pfbGzDn54" d="M 770 955 c 0 -3 2 -5 5 -5 3 0 5 2 5 5 0 3 -2 5 -5 5 -3 0 -5 -2 -5 -5 z "></path><path id="pnvAf4QuF" d="M 470 870 c -14 -8 -17 -43 -11 -110 2 -16 71 -79 99 -90 29 -11 35 -11 43 1 5 8 9 17 9 21 0 10 -30 38 -41 38 -5 0 -28 18 -51 41 -43 41 -43 41 -4 54 42 15 68 34 48 36 -26 3 -31 4 -38 12 -10 10 -35 8 -54 -3 z "></path><path id="p8PTakPTe" d="M 620 695 c 0 -3 2 -5 5 -5 3 0 5 2 5 5 0 3 -2 5 -5 5 -3 0 -5 -2 -5 -5 z "></path><path id="pZx3YegDe" d="M 870 430 c -43 -80 41 -193 118 -161 50 21 96 145 62 166 -6 4 -47 8 -91 10 -69 3 -81 1 -89 -15 z "></path></g></g></svg>